<?xml version="1.0" encoding="UTF-8" standalone="no"?>
<!-- Created with Inkscape (http://www.inkscape.org/) -->

<svg
   version="1.1"
   id="svg2988"
   width="450.90698"
   height="256.42206"
   viewBox="0 0 450.90698 256.42206"
   sodipodi:docname="渤海银行.svg"
   inkscape:version="1.2.2 (b0a84865, 2022-12-01)"
   xmlns:inkscape="http://www.inkscape.org/namespaces/inkscape"
   xmlns:sodipodi="http://sodipodi.sourceforge.net/DTD/sodipodi-0.dtd"
   xmlns="http://www.w3.org/2000/svg"
   xmlns:svg="http://www.w3.org/2000/svg">
  <defs
     id="defs2992" />
  <sodipodi:namedview
     id="namedview2990"
     pagecolor="#ffffff"
     bordercolor="#000000"
     borderopacity="0.25"
     inkscape:showpageshadow="2"
     inkscape:pageopacity="0.0"
     inkscape:pagecheckerboard="0"
     inkscape:deskcolor="#d1d1d1"
     showgrid="false"
     inkscape:zoom="0.4609375"
     inkscape:cx="202.84746"
     inkscape:cy="145.35593"
     inkscape:window-width="1313"
     inkscape:window-height="458"
     inkscape:window-x="0"
     inkscape:window-y="25"
     inkscape:window-maximized="0"
     inkscape:current-layer="g2994" />
  <g
     inkscape:groupmode="layer"
     inkscape:label="Image"
     id="g2994"
     transform="translate(-21.519854,-109.57966)">
    <g
       id="g3022"
       transform="matrix(1.1303565,0,0,1.1303565,-12.614449,-26.545916)"
       style="fill:#00349a;fill-opacity:1">
      <g
         id="g2998"
         transform="translate(-28.203392,-21.694915)"
         style="fill:#00349a;fill-opacity:1">
        <path
           style="fill:#00349a;fill-opacity:1"
           d="m 307.25,178.31067 c 0.9625,-0.25152 2.5375,-0.25152 3.5,0 0.9625,0.25153 0.175,0.45733 -1.75,0.45733 -1.925,0 -2.7125,-0.2058 -1.75,-0.45733 z m 23.01903,-0.004 c 0.97297,-0.25354 2.32297,-0.23687 3,0.0371 0.67703,0.27393 -0.11903,0.48137 -1.76903,0.46099 -1.65,-0.0204 -2.20394,-0.2445 -1.23097,-0.49804 z M 416.87244,162.25 c -1.24387,-1.58606 -1.2085,-1.62143 0.37756,-0.37756 1.66575,1.30637 2.19548,2.12756 1.37244,2.12756 -0.20765,0 -0.99515,-0.7875 -1.75,-1.75 z M 341.25,142.31067 c 0.9625,-0.25152 2.5375,-0.25152 3.5,0 0.9625,0.25153 0.175,0.45733 -1.75,0.45733 -1.925,0 -2.7125,-0.2058 -1.75,-0.45733 z m 11,0 c 0.9625,-0.25152 2.5375,-0.25152 3.5,0 0.9625,0.25153 0.175,0.45733 -1.75,0.45733 -1.925,0 -2.7125,-0.2058 -1.75,-0.45733 z"
           id="path3012" />
        <path
           style="fill:#00349a;fill-opacity:1"
           d="m 303.8125,178.31689 c 0.72187,-0.28887 1.58438,-0.25335 1.91667,0.0789 0.33229,0.33229 -0.25834,0.56864 -1.3125,0.52522 -1.16495,-0.048 -1.4019,-0.28494 -0.60417,-0.60416 z m -89,-19 c 0.72187,-0.28887 1.58437,-0.25335 1.91667,0.0789 0.33229,0.33229 -0.25834,0.56864 -1.3125,0.52522 -1.16495,-0.048 -1.4019,-0.28494 -0.60417,-0.60416 z m 132.45653,-17.00988 c 0.97297,-0.25354 2.32297,-0.23687 3,0.0371 0.67703,0.27393 -0.11903,0.48137 -1.76903,0.46099 -1.65,-0.0204 -2.20394,-0.2445 -1.23097,-0.49804 z"
           id="path3010" />
        <path
           style="fill:#00349a;fill-opacity:1"
           d="m 308.8125,187.31689 c 0.72187,-0.28887 1.58438,-0.25335 1.91667,0.0789 0.33229,0.33229 -0.25834,0.56864 -1.3125,0.52522 -1.16495,-0.048 -1.4019,-0.28494 -0.60417,-0.60416 z m 28,-9 c 0.72187,-0.28887 1.58438,-0.25335 1.91667,0.0789 0.33229,0.33229 -0.25834,0.56864 -1.3125,0.52522 -1.16495,-0.048 -1.4019,-0.28494 -0.60417,-0.60416 z"
           id="path3008" />
        <path
           style="fill:#68ca3f;fill-opacity:1"
           d="m 63,295.62244 c 0,-0.20765 0.7875,-0.99515 1.75,-1.75 1.586056,-1.24387 1.621426,-1.2085 0.377555,0.37756 C 63.821186,295.91575 63,296.44548 63,295.62244 Z M 409.08911,195.46113 C 395.29808,189.04285 375.31491,183.34206 356,180.31587 c -14.20786,-2.22603 -54.83869,-2.51895 -71,-0.51186 -20.23475,2.51297 -48.98837,8.90996 -65.89307,14.65962 l -6.97597,2.37268 -7.81548,-3.3508 C 193.78996,188.97282 183.33613,187 169.94924,187 c -12.37312,0 -26.75713,2.48169 -37.75916,6.51463 l -6.69008,2.45234 4.5,-4.03988 c 15.81807,-14.20067 35.11371,-25.06668 52.5,-29.56446 8.10393,-2.09647 12.46489,-2.60398 23,-2.67667 17.92477,-0.12366 30.17836,2.69004 45.89242,10.53795 l 7.89241,3.94162 3.10759,-2.30841 c 12.14579,-9.02228 29.00114,-17.76399 43.10758,-22.35694 26.91619,-8.7637 60.57862,-8.51791 88.5,0.6462 21.06931,6.91518 31.56778,17.9357 29.59385,31.06544 -0.64478,4.28884 -6.39785,15.89867 -8.1597,16.46646 -0.51378,0.16558 -3.36905,-0.83214 -6.34504,-2.21715 z"
           id="path3006" />
        <path
           style="fill:#00349a;fill-opacity:1"
           d="m 373.4687,341.75 -5.9687,-6.25 6.25,5.9687 c 3.4375,3.28278 6.25,6.09528 6.25,6.25 0,0.7389 -0.98689,-0.16298 -6.5313,-5.9687 z M 60,298.5 c 1.291745,-1.375 2.516195,-2.5 2.720999,-2.5 0.830798,0 -3.290262,4.93951 -4.145313,4.96858 C 58.067313,300.98586 58.708255,299.875 60,298.5 Z m 134.26375,-32.21758 c 1.52006,-0.22986 3.77006,-0.22371 5,0.0136 1.22994,0.23736 -0.0137,0.42542 -2.76375,0.41792 -2.75,-0.008 -3.75631,-0.20172 -2.23625,-0.43157 z M 440.94617,229.25 437.5,225.5 l 3.75,3.44617 c 2.0625,1.89539 3.75,3.58289 3.75,3.75 0,0.76362 -0.84622,0.0443 -4.05383,-3.44617 z M 313.8125,187.31689 c 0.72187,-0.28887 1.58438,-0.25335 1.91667,0.0789 0.33229,0.33229 -0.25834,0.56864 -1.3125,0.52522 -1.16495,-0.048 -1.4019,-0.28494 -0.60417,-0.60416 z m 19,0 c 0.72187,-0.28887 1.58438,-0.25335 1.91667,0.0789 0.33229,0.33229 -0.25834,0.56864 -1.3125,0.52522 -1.16495,-0.048 -1.4019,-0.28494 -0.60417,-0.60416 z"
           id="path3004" />
        <path
           style="fill:#00349a;fill-opacity:1"
           d="m 388.87244,358.25 c -1.24387,-1.58606 -1.2085,-1.62143 0.37756,-0.37756 1.66575,1.30637 2.19548,2.12756 1.37244,2.12756 -0.20765,0 -0.99515,-0.7875 -1.75,-1.75 z m -7.46745,-8.5 -1.90499,-2.25 2.25,1.90499 c 1.2375,1.04774 2.25,2.06024 2.25,2.25 0,0.80025 -0.80479,0.20945 -2.59501,-1.90499 z m -16,-16 -1.90499,-2.25 2.25,1.90499 c 2.11444,1.79022 2.70524,2.59501 1.90499,2.59501 -0.18976,0 -1.20226,-1.0125 -2.25,-2.25 z M 72.5,287 c 0.995486,-1.1 2.034975,-2 2.309975,-2 0.275,0 -0.314489,0.9 -1.309975,2 -0.995486,1.1 -2.034975,2 -2.309975,2 -0.275,0 0.314489,-0.9 1.309975,-2 z m 7.5,-6.37756 c 0,-0.20765 0.7875,-0.99515 1.75,-1.75 1.586056,-1.24387 1.621426,-1.2085 0.377555,0.37756 C 80.821186,280.91575 80,281.44548 80,280.62244 Z m 108.75,-14.28472 c 0.6875,-0.27741 1.8125,-0.27741 2.5,0 0.6875,0.27741 0.125,0.50439 -1.25,0.50439 -1.375,0 -1.9375,-0.22698 -1.25,-0.50439 z m 13.51903,-0.0307 c 0.97297,-0.25354 2.32297,-0.23687 3,0.0371 0.67703,0.27393 -0.11903,0.48137 -1.76903,0.46099 -1.65,-0.0204 -2.20394,-0.2445 -1.23097,-0.49804 z M 319.75,187.26779 c 2.3375,-0.21053 6.1625,-0.21053 8.5,0 2.3375,0.21054 0.425,0.3828 -4.25,0.3828 -4.675,0 -6.5875,-0.17226 -4.25,-0.3828 z"
           id="path3002" />
        <path
           style="fill:#00349a;fill-opacity:1"
           d="M 389.49828,358.35544 C 334.87983,293.91031 259.94954,261.21205 180.08509,266.9712 140.53753,269.82304 99.720063,280.65725 64.5,297.65103 l -5,2.41251 8,-7.65152 c 53.38948,-51.06382 121.03759,-85.24208 195.5,-98.77363 25.69942,-4.67018 40.97389,-5.91855 65.78209,-5.37629 33.6462,0.73543 52.93384,5.00657 77.71791,17.21021 19.92583,9.81146 37.27832,24.18793 47.16158,39.0732 l 3.64652,5.49205 -24.2846,49.23122 c -13.35653,27.07717 -26.58913,53.83756 -29.40578,59.46754 l -5.12117,10.23632 z"
           id="path3000" />
      </g>
    </g>
  </g>
</svg>
