<?xml version="1.0" encoding="UTF-8" standalone="no"?>
<!-- Created with Inkscape (http://www.inkscape.org/) -->

<svg
   width="112.44791mm"
   height="112.59924mm"
   viewBox="0 0 112.44791 112.59924"
   version="1.1"
   id="svg5"
   xml:space="preserve"
   inkscape:version="1.2.2 (b0a84865, 2022-12-01)"
   sodipodi:docname="dongguanbank.svg"
   xmlns:inkscape="http://www.inkscape.org/namespaces/inkscape"
   xmlns:sodipodi="http://sodipodi.sourceforge.net/DTD/sodipodi-0.dtd"
   xmlns="http://www.w3.org/2000/svg"
   xmlns:svg="http://www.w3.org/2000/svg"><sodipodi:namedview
     id="namedview7"
     pagecolor="#ffffff"
     bordercolor="#000000"
     borderopacity="0.25"
     inkscape:showpageshadow="2"
     inkscape:pageopacity="0.0"
     inkscape:pagecheckerboard="0"
     inkscape:deskcolor="#d1d1d1"
     inkscape:document-units="mm"
     showgrid="false"
     inkscape:zoom="0.5946522"
     inkscape:cx="211.04773"
     inkscape:cy="195.07201"
     inkscape:window-width="1313"
     inkscape:window-height="458"
     inkscape:window-x="0"
     inkscape:window-y="31"
     inkscape:window-maximized="0"
     inkscape:current-layer="layer1" /><defs
     id="defs2" /><g
     inkscape:label="图层 1"
     inkscape:groupmode="layer"
     id="layer1"
     transform="translate(-53.23711,-112.83451)"><path
       style="fill:#dc081e;fill-opacity:1;stroke-width:1.15014"
       d="m 91.511844,222.59541 c -17.93214,-6.71966 -28.7327,-17.64033 -35.26922,-35.66149 -8.57229,-23.63356 1.76527,-52.31423 23.72285,-65.81709 25.368386,-15.60037 58.975536,-8.52409 75.315596,15.85832 8.71409,13.00309 12.07749,27.17366 9.62274,40.54242 -2.35615,12.83195 -9.24255,25.85599 -17.71674,33.50703 -4.29952,3.8819 -13.79698,9.54781 -18.50068,11.03695 -2.53029,0.80102 -5.49924,1.91046 -6.59768,2.4654 -1.09844,0.55493 -6.79164,0.96038 -12.65155,0.90104 -8.20185,-0.083 -12.328096,-0.73516 -17.925316,-2.83258 z m 27.233296,-12.52823 c 7.1677,-1.9078 14.23681,-6.27183 17.00636,-10.49871 8.96848,-13.68761 2.26482,-32.96162 -13.03561,-37.47931 l -4.95582,-1.46328 v -6.64972 -6.64975 h 4.03804 c 6.17159,0 14.23251,4.37154 21.6446,11.73807 3.68789,3.6653 6.89014,6.66415 7.11605,6.66415 1.10436,0 -1.26571,-9.33793 -3.77657,-14.87973 -7.43534,-16.41061 -27.9036,-26.97661 -44.73256,-23.09157 -8.357296,1.92932 -11.619266,3.51288 -15.806456,7.67334 -12.66938,12.58856 -8.41311,33.16767 8.30461,40.15279 6.178316,2.58146 7.110316,1.67133 7.110316,-6.94335 v -7.51202 h 8.051 8.05097 v 8.05096 8.05101 h -8.05097 -8.051 v 6.90083 6.90084 h -4.148586 c -8.57973,0 -23.09032,-9.48942 -28.04284,-18.3391 -1.81112,-3.23629 -2.4913,-0.35732 -1.11352,4.71296 2.33451,8.59133 6.058,15.13898 12.02354,21.14295 10.93406,11.00452 24.734386,15.14755 38.368446,11.51864 z"
       id="path258" /></g></svg>
