<?xml version="1.0" encoding="UTF-8" standalone="no"?>
<!-- Created with Inkscape (http://www.inkscape.org/) -->

<svg
   version="1.1"
   id="svg4897"
   width="449.99997"
   height="209.46425"
   viewBox="0 0 449.99997 209.46425"
   sodipodi:docname="光大银行.svg"
   inkscape:version="1.2.2 (b0a84865, 2022-12-01)"
   xmlns:inkscape="http://www.inkscape.org/namespaces/inkscape"
   xmlns:sodipodi="http://sodipodi.sourceforge.net/DTD/sodipodi-0.dtd"
   xmlns="http://www.w3.org/2000/svg"
   xmlns:svg="http://www.w3.org/2000/svg">
  <defs
     id="defs4901" />
  <sodipodi:namedview
     id="namedview4899"
     pagecolor="#ffffff"
     bordercolor="#000000"
     borderopacity="0.25"
     inkscape:showpageshadow="2"
     inkscape:pageopacity="0.0"
     inkscape:pagecheckerboard="0"
     inkscape:deskcolor="#d1d1d1"
     showgrid="false"
     inkscape:zoom="0.4609375"
     inkscape:cx="196.33898"
     inkscape:cy="101.9661"
     inkscape:window-width="1313"
     inkscape:window-height="458"
     inkscape:window-x="0"
     inkscape:window-y="25"
     inkscape:window-maximized="0"
     inkscape:current-layer="g4903" />
  <g
     inkscape:groupmode="layer"
     inkscape:label="Image"
     id="g4903"
     transform="translate(-27.627139,-153.11525)">
    <g
       id="g4907"
       transform="matrix(1.1335017,0,0,1.1335017,510.26832,-106.51044)">
      <path
         style="fill:#d0d0d0;fill-opacity:1"
         d="m -326.98411,413.23214 c 0.72187,-0.28887 1.58437,-0.25335 1.91667,0.0789 0.33229,0.33229 -0.25834,0.56864 -1.3125,0.52522 -1.16495,-0.048 -1.4019,-0.28494 -0.60417,-0.60416 z m 70.94916,-5.02415 c 1.24391,-0.23919 3.04391,-0.23011 4,0.0202 0.95609,0.25029 -0.0617,0.446 -2.26166,0.4349 -2.2,-0.0111 -2.98225,-0.21589 -1.73834,-0.45508 z m 46.05084,-1.97585 c 0.72187,-0.28887 1.58438,-0.25335 1.91667,0.0789 0.33229,0.33229 -0.25834,0.56864 -1.3125,0.52522 -1.16495,-0.048 -1.4019,-0.28494 -0.60417,-0.60416 z m 39.61501,-22.31689 c 0,-12.375 0.14355,-17.4375 0.319,-11.25 0.17544,6.1875 0.17544,16.3125 0,22.5 -0.17545,6.1875 -0.319,1.125 -0.319,-11.25 z m -154.17751,19.25669 c 4.2625,-0.18745 11.2375,-0.18745 15.5,0 4.2625,0.18745 0.775,0.34082 -7.75,0.34082 -8.525,0 -12.0125,-0.15337 -7.75,-0.34082 z m 128.90789,-5.25669 c 0,-1.375 0.22698,-1.9375 0.50439,-1.25 0.27741,0.6875 0.27741,1.8125 0,2.5 -0.27741,0.6875 -0.50439,0.125 -0.50439,-1.25 z m -134.96294,-3.5 c 0.0204,-1.65 0.2445,-2.20394 0.49804,-1.23097 0.25354,0.97297 0.23687,2.32297 -0.0371,3 -0.27393,0.67703 -0.48137,-0.11903 -0.46099,-1.76903 z m 125,-9 c 0.0204,-1.65 0.2445,-2.20394 0.49804,-1.23097 0.25354,0.97297 0.23687,2.32297 -0.0371,3 -0.27393,0.67703 -0.48137,-0.11903 -0.46099,-1.76903 z m 90.03705,-3.5 c 0,-1.925 0.2058,-2.7125 0.45733,-1.75 0.25152,0.9625 0.25152,2.5375 0,3.5 -0.25153,0.9625 -0.45733,0.175 -0.45733,-1.75 z m -170.59035,-1.74171 -0.79692,-3.24171 -56.17236,-0.26678 -56.17237,-0.26679 56,-0.22619 c 30.8,-0.12441 56.59853,0.15324 57.33008,0.617 0.76838,0.48711 1.17771,2.06428 0.96928,3.73469 l -0.36078,2.89149 z m -57.35514,-9.99837 c 3.18258,-0.19905 8.13258,-0.1972 11,0.004 2.86742,0.20131 0.26349,0.36417 -5.78651,0.36191 -6.05,-0.002 -8.39607,-0.16696 -5.21349,-0.36601 z m 146.90844,-7.75992 c 0.0204,-1.65 0.2445,-2.20394 0.49804,-1.23097 0.25354,0.97297 0.23687,2.32297 -0.0371,3 -0.27393,0.67703 -0.48137,-0.11903 -0.46099,-1.76903 z m -197.94495,-3.23504 c 2.6125,-0.206 6.8875,-0.206 9.5,0 2.6125,0.206 0.475,0.37454 -4.75,0.37454 -5.225,0 -7.3625,-0.16854 -4.75,-0.37454 z m 83.5,-1.00536 c 3.4375,-0.19527 9.0625,-0.19527 12.5,0 3.4375,0.19527 0.625,0.35504 -6.25,0.35504 -6.875,0 -9.6875,-0.15977 -6.25,-0.35504 z m -54.5,-10.99859 c 3.1625,-0.19845 8.3375,-0.19845 11.5,0 3.1625,0.19845 0.575,0.36082 -5.75,0.36082 -6.325,0 -8.9125,-0.16237 -5.75,-0.36082 z m 99.5625,-0.94412 c 0.72187,-0.28887 1.58437,-0.25335 1.91667,0.0789 0.33229,0.33229 -0.25834,0.56864 -1.3125,0.52522 -1.16495,-0.048 -1.4019,-0.28494 -0.60417,-0.60416 z m 59.43968,-2.81689 c 0.0111,-2.2 0.21589,-2.98225 0.45508,-1.73834 0.23919,1.24391 0.23011,3.04391 -0.0202,4 -0.25029,0.95609 -0.446,-0.0617 -0.4349,-2.26166 z m -88.37974,-2.25 c -1.24387,-1.58606 -1.2085,-1.62143 0.37756,-0.37756 1.66575,1.30637 2.19548,2.12756 1.37244,2.12756 -0.20765,0 -0.99515,-0.7875 -1.75,-1.75 z m -106.62026,-2.75 c 0.0111,-2.2 0.21589,-2.98225 0.45508,-1.73834 0.23919,1.24391 0.23011,3.04391 -0.0202,4 -0.25029,0.95609 -0.446,-0.0617 -0.4349,-2.26166 z m 7.99782,2.76496 c 2.6125,-0.206 6.8875,-0.206 9.5,0 2.6125,0.206 0.475,0.37454 -4.75,0.37454 -5.225,0 -7.3625,-0.16854 -4.75,-0.37454 z m 82.53352,-1.00336 c 2.90594,-0.20265 7.40594,-0.20052 10,0.005 2.59406,0.20525 0.21648,0.37104 -5.28352,0.36844 -5.5,-0.003 -7.62242,-0.17053 -4.71648,-0.37317 z m -53.03352,-5.99884 c 2.8875,-0.202 7.6125,-0.202 10.5,0 2.8875,0.202 0.525,0.36728 -5.25,0.36728 -5.775,0 -8.1375,-0.16528 -5.25,-0.36728 z m 166.40789,-6.26276 c 0,-1.375 0.22698,-1.9375 0.50439,-1.25 0.27741,0.6875 0.27741,1.8125 0,2.5 -0.27741,0.6875 -0.50439,0.125 -0.50439,-1.25 z m -120.39623,-5.70726 c 1.24391,-0.23919 3.04391,-0.23011 4,0.0202 0.95609,0.25029 -0.0617,0.446 -2.26166,0.4349 -2.2,-0.0111 -2.98225,-0.21589 -1.73834,-0.45508 z m 207.56648,-8.79274 c 0.004,-3.85 0.18518,-5.30246 0.40166,-3.2277 0.21647,2.07477 0.21284,5.22477 -0.008,7 -0.22091,1.77524 -0.39803,0.0777 -0.39359,-3.7723 z m 22.92404,-8 c 0.0111,-2.2 0.21589,-2.98225 0.45508,-1.73834 0.23919,1.24391 0.23011,3.04391 -0.0202,4 -0.25029,0.95609 -0.446,-0.0617 -0.4349,-2.26166 z m -292.50218,0.76779 c 2.3375,-0.21053 6.1625,-0.21053 8.5,0 2.3375,0.21054 0.425,0.3828 -4.25,0.3828 -4.675,0 -6.5875,-0.17226 -4.25,-0.3828 z m 3.5,-5.01691 c 13.0625,-0.15789 34.4375,-0.15789 47.5,0 13.0625,0.1579 2.375,0.28709 -23.75,0.28709 -26.125,0 -36.8125,-0.12919 -23.75,-0.28709 z m -20.98625,-4.96846 c 1.52006,-0.22986 3.77006,-0.22371 5,0.0136 1.22994,0.23736 -0.0137,0.42542 -2.76375,0.41792 -2.75,-0.008 -3.75631,-0.20172 -2.23625,-0.43157 z m 66.51977,-1.02082 c 2.90594,-0.20265 7.40594,-0.20052 10,0.005 2.59406,0.20525 0.21648,0.37104 -5.28352,0.36844 -5.5,-0.003 -7.62242,-0.17053 -4.71648,-0.37317 z m -63.53352,-6.99664 c 2.6125,-0.206 6.8875,-0.206 9.5,0 2.6125,0.206 0.475,0.37454 -4.75,0.37454 -5.225,0 -7.3625,-0.16854 -4.75,-0.37454 z m 77.5,-0.99717 c 2.3375,-0.21053 6.1625,-0.21053 8.5,0 2.3375,0.21054 0.425,0.3828 -4.25,0.3828 -4.675,0 -6.5875,-0.17226 -4.25,-0.3828 z m -78,-4.00503 c 2.8875,-0.202 7.6125,-0.202 10.5,0 2.8875,0.202 0.525,0.36728 -5.25,0.36728 -5.775,0 -8.1375,-0.16528 -5.25,-0.36728 z m 79,-0.99497 c 2.3375,-0.21053 6.1625,-0.21053 8.5,0 2.3375,0.21054 0.425,0.3828 -4.25,0.3828 -4.675,0 -6.5875,-0.17226 -4.25,-0.3828 z m -24.46983,-5.00406 c 2.6291,-0.20668 6.6791,-0.20418 9,0.006 2.32091,0.20972 0.16983,0.37882 -4.78017,0.37577 -4.95,-0.003 -6.84892,-0.17464 -4.21983,-0.38131 z m -9.83335,-21.00893 c 38.35863,-0.2102 50.15083,-0.56152 50.82613,-1.51425 0.64528,-0.91037 0.77037,-0.84132 0.46999,0.25945 -0.35688,1.30784 -6.8679,1.50182 -50.82613,1.51424 l -50.41681,0.0143 z m 15.9549,-19.7548 c 0.0897,-1.82495 0.8206,-2.00566 8.35127,-2.06468 l 8.253,-0.0647 -7.93861,0.35408 c -6.48127,0.28908 -8.01436,0.66811 -8.35128,2.06468 -0.29747,1.23311 -0.38523,1.15233 -0.31438,-0.2894 z m -68.65172,-7.24908 c 12.7875,-0.15828 33.7125,-0.15828 46.5,0 12.7875,0.15828 2.325,0.28778 -23.25,0.28778 -25.575,0 -36.0375,-0.1295 -23.25,-0.28778 z"
         id="path4919" />
      <path
         style="fill:#b9b9b9;fill-opacity:1"
         d="m -403.47833,413.16603 c 12.55005,-0.15877 32.80005,-0.15859 45,4e-4 12.19995,0.159 1.93172,0.2889 -22.81828,0.28869 -24.75,-2.2e-4 -34.73177,-0.13031 -22.18172,-0.28909 z m 73.49422,0.0661 c 0.72187,-0.28887 1.58437,-0.25335 1.91667,0.0789 0.33229,0.33229 -0.25834,0.56864 -1.3125,0.52522 -1.16495,-0.048 -1.4019,-0.28494 -0.60417,-0.60416 z m 117,-7 c 0.72187,-0.28887 1.58438,-0.25335 1.91667,0.0789 0.33229,0.33229 -0.25834,0.56864 -1.3125,0.52522 -1.16495,-0.048 -1.4019,-0.28494 -0.60417,-0.60416 z m -88.8125,-3.69444 c 0,-0.20765 0.7875,-0.99515 1.75,-1.75 1.58606,-1.24387 1.62143,-1.2085 0.37756,0.37756 -1.30637,1.66575 -2.12756,2.19548 -2.12756,1.37244 z m 106.19495,-9.12244 c 0.0204,-1.65 0.2445,-2.20394 0.49804,-1.23097 0.25354,0.97297 0.23687,2.32297 -0.0371,3 -0.27393,0.67703 -0.48137,-0.11903 -0.46099,-1.76903 z m -10,-3 c 0.0204,-1.65 0.2445,-2.20394 0.49804,-1.23097 0.25354,0.97297 0.23687,2.32297 -0.0371,3 -0.27393,0.67703 -0.48137,-0.11903 -0.46099,-1.76903 z m -115.39176,0.75353 c 5.66676,-0.17857 14.66676,-0.17784 20,0.002 5.33325,0.17945 0.69681,0.32556 -10.30319,0.32467 -11,-8.8e-4 -15.36356,-0.14771 -9.69681,-0.32628 z m 205.42881,-3.25353 c 0,-1.925 0.2058,-2.7125 0.45733,-1.75 0.25152,0.9625 0.25152,2.5375 0,3.5 -0.25153,0.9625 -0.45733,0.175 -0.45733,-1.75 z m -263.732,-5.72555 c 51.58148,-0.69467 92.2675,-0.7055 91.84607,-0.0245 -0.25526,0.4125 -25.52505,0.64735 -56.15509,0.5219 -30.63004,-0.12541 -46.69098,-0.34926 -35.69098,-0.4974 z m 13.75,-12.01344 c 3.1625,-0.19845 8.3375,-0.19845 11.5,0 3.1625,0.19845 0.575,0.36082 -5.75,0.36082 -6.325,0 -8.9125,-0.16237 -5.75,-0.36082 z m 168.94495,-12.76101 c 0.0204,-1.65 0.2445,-2.20394 0.49804,-1.23097 0.25354,0.97297 0.23687,2.32297 -0.0371,3 -0.27393,0.67703 -0.48137,-0.11903 -0.46099,-1.76903 z m -136.94495,0.76101 c 3.1625,-0.19845 8.3375,-0.19845 11.5,0 3.1625,0.19845 0.575,0.36082 -5.75,0.36082 -6.325,0 -8.9125,-0.16237 -5.75,-0.36082 z m -37.5,-5.01037 c 15.5375,-0.15498 40.9625,-0.15498 56.5,0 15.5375,0.15498 2.825,0.28178 -28.25,0.28178 -31.075,0 -43.7875,-0.1268 -28.25,-0.28178 z m 164.44495,-3.75064 c 0.0204,-1.65 0.2445,-2.20394 0.49804,-1.23097 0.25354,0.97297 0.23687,2.32297 -0.0371,3 -0.27393,0.67703 -0.48137,-0.11903 -0.46099,-1.76903 z m -179.90844,-2.24008 c 3.18258,-0.19905 8.13258,-0.1972 11,0.004 2.86742,0.20131 0.26349,0.36417 -5.78651,0.36191 -6.05,-0.002 -8.39607,-0.16696 -5.21349,-0.36601 z m 83.48992,-0.99342 c 2.35204,-0.21124 5.95204,-0.20827 8,0.007 2.04796,0.21487 0.12357,0.38771 -4.27643,0.38408 -4.4,-0.004 -6.07561,-0.17944 -3.72357,-0.39069 z m 40.03607,0.0504 c 0.72187,-0.28887 1.58437,-0.25335 1.91667,0.0789 0.33229,0.33229 -0.25834,0.56864 -1.3125,0.52522 -1.16495,-0.048 -1.4019,-0.28494 -0.60417,-0.60416 z m 119.05994,-5.0669 c -1.24387,-1.58606 -1.2085,-1.62143 0.37756,-0.37756 0.9625,0.75485 1.75,1.54235 1.75,1.75 0,0.82304 -0.82119,0.29331 -2.12756,-1.37244 z m -230.58593,0.01 c 3.18258,-0.19905 8.13258,-0.1972 11,0.004 2.86742,0.20131 0.26349,0.36417 -5.78651,0.36191 -6.05,-0.002 -8.39607,-0.16696 -5.21349,-0.36601 z m 264.0629,-13.26 c 0,-4.675 0.17226,-6.5875 0.3828,-4.25 0.21053,2.3375 0.21053,6.1625 0,8.5 -0.21054,2.3375 -0.3828,0.425 -0.3828,-4.25 z m -270.59941,6.26779 c 2.3375,-0.21053 6.1625,-0.21053 8.5,0 2.3375,0.21054 0.425,0.3828 -4.25,0.3828 -4.675,0 -6.5875,-0.17226 -4.25,-0.3828 z m 76.5,-0.98404 c 1.5125,-0.22913 3.9875,-0.22913 5.5,0 1.5125,0.22912 0.275,0.41659 -2.75,0.41659 -3.025,0 -4.2625,-0.18747 -2.75,-0.41659 z m 106.90789,-9.28375 c 0,-1.375 0.22698,-1.9375 0.50439,-1.25 0.27741,0.6875 0.27741,1.8125 0,2.5 -0.27741,0.6875 -0.50439,0.125 -0.50439,-1.25 z m -128.40789,-1.70573 c 1.2375,-0.23836 3.2625,-0.23836 4.5,0 1.2375,0.23835 0.225,0.43337 -2.25,0.43337 -2.475,0 -3.4875,-0.19502 -2.25,-0.43337 z m -11.45429,-5.0384 c 4.28763,-0.1879 11.03763,-0.18676 15,0.003 3.96236,0.1893 0.45429,0.34304 -7.79571,0.34164 -8.25,-10e-4 -11.49193,-0.15629 -7.20429,-0.34419 z m 92.45429,-1.91815 c 0.6875,-0.27741 1.8125,-0.27741 2.5,0 0.6875,0.27741 0.125,0.50439 -1.25,0.50439 -1.375,0 -1.9375,-0.22698 -1.25,-0.50439 z m 8.0625,-0.0208 c 0.72187,-0.28887 1.58437,-0.25335 1.91667,0.0789 0.33229,0.33229 -0.25834,0.56864 -1.3125,0.52522 -1.16495,-0.048 -1.4019,-0.28494 -0.60417,-0.60416 z m 149.4195,-3.31692 c 0,-1.925 0.2058,-2.7125 0.45733,-1.75 0.25152,0.9625 0.25152,2.5375 0,3.5 -0.25153,0.9625 -0.45733,0.175 -0.45733,-1.75 z m -252.44848,-0.7384 c 2.90594,-0.20265 7.40594,-0.20052 10,0.005 2.59406,0.20525 0.21648,0.37104 -5.28352,0.36844 -5.5,-0.003 -7.62242,-0.17053 -4.71648,-0.37317 z m -60.55152,-7.2616 c 0,-1.925 0.2058,-2.7125 0.45733,-1.75 0.25152,0.9625 0.25152,2.5375 0,3.5 -0.25153,0.9625 -0.45733,0.175 -0.45733,-1.75 z m 36.518,2.26779 c 2.3375,-0.21053 6.1625,-0.21053 8.5,0 2.3375,0.21054 0.425,0.3828 -4.25,0.3828 -4.675,0 -6.5875,-0.17226 -4.25,-0.3828 z m -36.67105,-13.51779 c -0.0434,-2.6125 0.28069,-4.75 0.72025,-4.75 0.43956,0 0.63194,1.6875 0.42752,3.75 -0.57539,5.80545 -1.06087,6.22843 -1.14777,1 z m 15.20756,3.50992 c 3.18258,-0.19905 8.13258,-0.1972 11,0.004 2.86742,0.20131 0.26349,0.36417 -5.78651,0.36191 -6.05,-0.002 -8.39607,-0.16696 -5.21349,-0.36601 z m 72.48992,-0.99342 c 2.35204,-0.21124 5.95204,-0.20827 8,0.007 2.04796,0.21487 0.12357,0.38771 -4.27643,0.38408 -4.4,-0.004 -6.07561,-0.17944 -3.72357,-0.39069 z m -21.52643,-8.00154 c 2.6125,-0.206 6.8875,-0.206 9.5,0 2.6125,0.206 0.475,0.37454 -4.75,0.37454 -5.225,0 -7.3625,-0.16854 -4.75,-0.37454 z m -66.018,-6.26496 c 0,-1.925 0.2058,-2.7125 0.45733,-1.75 0.25152,0.9625 0.25152,2.5375 0,3.5 -0.25153,0.9625 -0.45733,0.175 -0.45733,-1.75 z m 26.05451,2.25992 c 3.18258,-0.19905 8.13258,-0.1972 11,0.004 2.86742,0.20131 0.26349,0.36417 -5.78651,0.36191 -6.05,-0.002 -8.39607,-0.16696 -5.21349,-0.36601 z m 73.71349,-0.25992 -3.5,-0.73672 3.75,-0.13164 c 2.0625,-0.0724 3.75,0.31836 3.75,0.86836 0,0.55 -0.1125,0.94076 -0.25,0.86836 -0.1375,-0.0724 -1.825,-0.46317 -3.75,-0.86836 z m -56.25,-5.73221 c 2.3375,-0.21053 6.1625,-0.21053 8.5,0 2.3375,0.21054 0.425,0.3828 -4.25,0.3828 -4.675,0 -6.5875,-0.17226 -4.25,-0.3828 z m 62.32895,-3.85112 c 0.048,-1.16495 0.28494,-1.4019 0.60416,-0.60417 0.28887,0.72187 0.25335,1.58437 -0.0789,1.91667 -0.3323,0.33229 -0.56864,-0.25834 -0.52522,-1.3125 z m -105.92912,-4.16667 -0.14983,-3.25 53.25,0.24097 53.25,0.24097 -52.68443,0.26784 -52.68443,0.26783 -0.41574,2.7412 c -0.38531,2.54055 -0.4267,2.5033 -0.56557,-0.50881 z m 0.0822,-10.25 c 0,-1.925 0.2058,-2.7125 0.45733,-1.75 0.25152,0.9625 0.25152,2.5375 0,3.5 -0.25153,0.9625 -0.45733,0.175 -0.45733,-1.75 z m 69.268,-14.67212 c 11.98688,-0.72436 26.50405,-0.76703 26.50211,-0.0779 -0.001,0.4125 -7.08961,0.66676 -15.75211,0.56502 -8.6625,-0.10174 -13.5,-0.32095 -10.75,-0.48714 z"
         id="path4917" />
      <path
         style="fill:#fcea00;fill-opacity:1"
         d="m -381.04661,413.16551 -44.75,-0.27085 v -91.53301 -91.53302 l 50.25,0.29331 c 42.20824,0.24637 50.7301,0.53298 53.25,1.79091 2.95241,1.47384 2.87707,1.50227 -4.75,1.79206 l -7.75,0.29447 v 2.95793 2.95794 h 13.3 c 12.69078,0 15.7,0.61335 15.7,3.2 0,0.44 -6.75,0.8 -15,0.8 h -15 v 3 3 h 16.96482 c 15.74916,0 17.03899,0.1386 18,1.93426 0.56935,1.06384 1.03518,2.41384 1.03518,3 0,0.74025 -15.42323,1.06574 -50.5,1.06574 h -50.5 v 3 3 h 52.39301 c 46.85308,0 52.45719,0.16725 53,1.58179 0.33385,0.86998 0.60699,1.76998 0.60699,2 0,0.23001 -23.85,0.41821 -53,0.41821 h -53 v 3 3 h 53.06955 53.06955 l -0.31955,2.25 -0.31955,2.25 -37,0.61155 c -20.35,0.33635 -44.0875,0.67385 -52.75,0.75 l -15.75,0.13845 v 3.06305 3.06305 l 51.60341,-0.71928 c 50.42075,-0.70279 51.59504,-0.67559 51.23828,1.18695 -0.34235,1.78727 -1.79973,1.94484 -23.35341,2.52495 -12.64355,0.34029 -35.70078,0.67779 -51.23828,0.75 l -28.25,0.13128 v 4.48067 4.48068 l 49,-0.64371 c 42.63204,-0.56006 49,-0.45358 49,0.81932 0,3.77947 -1.08596,3.86304 -50.2,3.86304 h -47.8 v 3.15011 3.15011 l 42.60595,-0.72604 c 32.59645,-0.55547 42.4349,-0.4493 41.87792,0.45192 -1.64651,2.66411 -7.56339,3.9739 -17.95175,3.9739 h -10.53212 v 3.5 3.5 h 16.38922 c 14.50391,0 16.65416,0.21454 18.69243,1.86504 2.2727,1.84032 2.04888,1.87479 -16.88921,2.60161 l -19.19244,0.73659 v 2.89838 2.89838 h 22.34501 c 20.48552,0 22.48459,0.15423 24.02224,1.85332 1.61355,1.78294 1.42008,1.8776 -5.09501,2.49289 -3.72473,0.35176 -21.39724,0.6446 -39.27224,0.65074 -17.875,0.006 -38.2375,0.30378 -45.25,0.66143 l -12.75,0.65026 v 3.40426 3.40426 l 53.33543,-0.71258 53.33543,-0.71258 1.68997,2.404 1.68997,2.404 -8.7754,0.64411 c -4.82647,0.35426 -26.5504,0.69568 -48.2754,0.75869 -21.725,0.063 -41.8625,0.39835 -44.75,0.74518 -4.9629,0.59612 -5.25,0.78704 -5.25,3.49131 v 2.86071 h 56.5 c 54.16727,0 56.5,0.0759 56.5,1.83745 0,1.74137 -2.0787,1.87203 -39.75,2.49863 -21.8625,0.36365 -47.2875,0.6618 -56.5,0.66255 l -16.75,10e-4 v 2.99174 2.99175 l 56.75,0.25825 c 55.99725,0.25483 56.75,0.28479 56.75,2.25826 0,1.96381 -0.86857,2.01096 -48,2.60571 -26.4,0.33315 -51.9375,0.67065 -56.75,0.75 l -8.75,0.14429 v 3 3 h 56.06955 56.06955 l -0.31955,2.25 -0.31955,2.25 -55.75,0.2584 -55.75,0.25839 v 2.49161 2.4916 h 54.07332 c 50.95986,0 54.05396,0.10076 53.73702,1.75 -0.30461,1.58506 -2.19652,1.77555 -20.07332,2.02114 l -19.73702,0.27114 v 2.97886 2.97886 h 16.5 c 9.075,0 16.5,0.37156 16.5,0.82569 0,0.45412 -1.0415,1.80412 -2.31445,3 -2.1594,2.02864 -3.29831,2.17431 -17,2.17431 h -14.68555 v 3 3 l 9.25,0.04 c 8.75597,0.0379 9.10373,0.1194 6.51134,1.52599 -2.60927,1.41576 -15.58988,3.60463 -18.76134,3.16365 -0.825,-0.11471 -21.6375,-0.33045 -46.25,-0.47942 z m 241.69306,-36.75026 c -4.5e-4,-16.5 0.13655,-23.39031 0.30444,-15.31181 0.16789,8.07851 0.16826,21.57851 8.2e-4,30 -0.16745,8.4215 -0.30481,1.81181 -0.30526,-14.68819 z m 23.78894,17.5 c 0,-1.925 0.2058,-2.7125 0.45733,-1.75 0.25152,0.9625 0.25152,2.5375 0,3.5 -0.25153,0.9625 -0.45733,0.175 -0.45733,-1.75 z m -90.15305,0.41667 c 0.048,-1.16495 0.28494,-1.4019 0.60416,-0.60417 0.28887,0.72187 0.25335,1.58438 -0.0789,1.91667 -0.33229,0.33229 -0.56864,-0.25834 -0.52522,-1.3125 z m 10.07894,-5.41667 c 0,-1.375 0.22698,-1.9375 0.50439,-1.25 0.27741,0.6875 0.27741,1.8125 0,2.5 -0.27741,0.6875 -0.50439,0.125 -0.50439,-1.25 z m -10.96294,-34.5 c 0.0204,-1.65 0.2445,-2.20394 0.49804,-1.23097 0.25354,0.97297 0.23687,2.32297 -0.0371,3 -0.27393,0.67703 -0.48137,-0.11903 -0.46099,-1.76903 z m 9.96294,-1.5 c 0,-1.375 0.22698,-1.9375 0.50439,-1.25 0.27741,0.6875 0.27741,1.8125 0,2.5 -0.27741,0.6875 -0.50439,0.125 -0.50439,-1.25 z m 86.17025,-10.5 c 0.004,-3.85 0.18518,-5.30246 0.40166,-3.2277 0.21647,2.07477 0.21284,5.22477 -0.008,7 -0.22091,1.77524 -0.39803,0.0777 -0.39359,-3.7723 z m -149.51564,3.81689 c 0.72187,-0.28887 1.58437,-0.25335 1.91667,0.0789 0.33229,0.33229 -0.25834,0.56864 -1.3125,0.52522 -1.16495,-0.048 -1.4019,-0.28494 -0.60417,-0.60416 z m 143.38245,-1.81689 c 0.0204,-1.65 0.2445,-2.20394 0.49804,-1.23097 0.25354,0.97297 0.23687,2.32297 -0.0371,3 -0.27393,0.67703 -0.48137,-0.11903 -0.46099,-1.76903 z m -164.38245,0.81689 c 0.72187,-0.28887 1.58437,-0.25335 1.91667,0.0789 0.33229,0.33229 -0.25834,0.56864 -1.3125,0.52522 -1.16495,-0.048 -1.4019,-0.28494 -0.60417,-0.60416 z m 83.34539,-25.31689 c 0,-1.375 0.22698,-1.9375 0.50439,-1.25 0.27741,0.6875 0.27741,1.8125 0,2.5 -0.27741,0.6875 -0.50439,0.125 -0.50439,-1.25 z m 110.09429,-1.5 c 0.0111,-2.2 0.21589,-2.98225 0.45508,-1.73834 0.23919,1.24391 0.23011,3.04391 -0.0202,4 -0.25029,0.95609 -0.446,-0.0617 -0.4349,-2.26166 z m -153.50218,-3.16228 c 0.6875,-0.27741 1.8125,-0.27741 2.5,0 0.6875,0.27741 0.125,0.50439 -1.25,0.50439 -1.375,0 -1.9375,-0.22698 -1.25,-0.50439 z m 90.0625,-1.02083 c 0.72187,-0.28887 1.58438,-0.25335 1.91667,0.0789 0.33229,0.33229 -0.25834,0.56864 -1.3125,0.52522 -1.16495,-0.048 -1.4019,-0.28494 -0.60417,-0.60416 z"
         id="path4915" />
      <path
         style="fill:#8c8c8c;fill-opacity:1"
         d="m -217.98411,406.23214 c 0.72187,-0.28887 1.58438,-0.25335 1.91667,0.0789 0.33229,0.33229 -0.25834,0.56864 -1.3125,0.52522 -1.16495,-0.048 -1.4019,-0.28494 -0.60417,-0.60416 z m 112.9375,-2.05729 c 3.4375,-0.19527 9.0625,-0.19527 12.5,0 3.4375,0.19527 0.625,0.35504 -6.25,0.35504 -6.875,0 -9.6875,-0.15977 -6.25,-0.35504 z m 57.5,-10e-4 c 3.7125,-0.19241 9.7875,-0.19241 13.5,0 3.7125,0.19241 0.675,0.34983 -6.75,0.34983 -7.425,0 -10.4625,-0.15742 -6.75,-0.34983 z m -68.018,-4.2586 c 0,-1.925 0.2058,-2.7125 0.45733,-1.75 0.25152,0.9625 0.25152,2.5375 0,3.5 -0.25153,0.9625 -0.45733,0.175 -0.45733,-1.75 z m -138.482,-10.66228 c 0.6875,-0.27741 1.8125,-0.27741 2.5,0 0.6875,0.27741 0.125,0.50439 -1.25,0.50439 -1.375,0 -1.9375,-0.22698 -1.25,-0.50439 z m 58.44495,-4.83772 c 0.0204,-1.65 0.2445,-2.20394 0.49804,-1.23097 0.25354,0.97297 0.23687,2.32297 -0.0371,3 -0.27393,0.67703 -0.48137,-0.11903 -0.46099,-1.76903 z m -10.96295,-24.5 c 0,-1.925 0.2058,-2.7125 0.45733,-1.75 0.25152,0.9625 0.25152,2.5375 0,3.5 -0.25153,0.9625 -0.45733,0.175 -0.45733,-1.75 z m 96.07787,-5.5 c 0.006,-3.3 0.1923,-4.52944 0.41486,-2.73209 0.22256,1.79735 0.21797,4.49735 -0.0102,6 -0.22818,1.50265 -0.41027,0.0321 -0.40466,-3.26791 z m -6.05769,-4 c 0.0111,-2.2 0.21589,-2.98225 0.45508,-1.73834 0.23919,1.24391 0.23011,3.04391 -0.0202,4 -0.25029,0.95609 -0.446,-0.0617 -0.4349,-2.26166 z m -80.05723,-2 c 0.0204,-1.65 0.2445,-2.20394 0.49804,-1.23097 0.25354,0.97297 0.23687,2.32297 -0.0371,3 -0.27393,0.67703 -0.48137,-0.11903 -0.46099,-1.76903 z m -36.32251,-10.25 c -1.24387,-1.58606 -1.2085,-1.62143 0.37756,-0.37756 1.66575,1.30637 2.19548,2.12756 1.37244,2.12756 -0.20765,0 -0.99515,-0.7875 -1.75,-1.75 z m 145.35956,-13.25 c 0,-1.925 0.2058,-2.7125 0.45733,-1.75 0.25152,0.9625 0.25152,2.5375 0,3.5 -0.25153,0.9625 -0.45733,0.175 -0.45733,-1.75 z m -85.93234,-4 c 0,-3.025 0.18747,-4.2625 0.41659,-2.75 0.22913,1.5125 0.22913,3.9875 0,5.5 -0.22912,1.5125 -0.41659,0.275 -0.41659,-2.75 z m 27.96937,-6.69299 c 0.97297,-0.25354 2.32297,-0.23687 3,0.0371 0.67703,0.27393 -0.11903,0.48137 -1.76903,0.46099 -1.65,-0.0204 -2.20394,-0.2445 -1.23097,-0.49804 z m 99.23097,-0.30701 -14,-0.58634 14.25,-0.20683 c 8.97122,-0.13021 14.25,0.16361 14.25,0.79317 0,0.55 -0.1125,0.90693 -0.25,0.79317 -0.1375,-0.11376 -6.55,-0.47068 -14.25,-0.79317 z"
         id="path4913" />
      <path
         style="fill:#767676;fill-opacity:1"
         d="m -115.71766,404.33192 c 0.048,-1.16495 0.28494,-1.4019 0.60416,-0.60417 0.28887,0.72187 0.25335,1.58438 -0.0789,1.91667 -0.33229,0.33229 -0.56864,-0.25834 -0.52522,-1.3125 z m -162.67396,-4.66667 -1.90499,-2.25 2.25,1.90499 c 2.11444,1.79022 2.70524,2.59501 1.90499,2.59501 -0.18976,0 -1.20226,-1.0125 -2.25,-2.25 z m 47.32834,-0.87409 c 0.67834,-0.68342 1.48524,-0.99067 1.79313,-0.68278 0.30789,0.30789 -0.24711,0.86705 -1.23333,1.24258 -1.4252,0.54268 -1.54006,0.42782 -0.5598,-0.5598 z m 35.42456,-18.87591 c 0,-1.375 0.22698,-1.9375 0.50439,-1.25 0.27741,0.6875 0.27741,1.8125 0,2.5 -0.27741,0.6875 -0.50439,0.125 -0.50439,-1.25 z m -33.96881,-11.30902 c -0.14058,-4.31905 -0.50969,-5.628 -1.43908,-5.10329 -0.99237,0.56026 -0.9958,0.43159 -0.0167,-0.62432 1.91529,-2.06546 2.40401,-0.68538 2.00904,5.67325 l -0.3642,5.86338 -0.18909,-5.80902 z m 119.12079,-3.19098 c 0.006,-3.3 0.1923,-4.52944 0.41486,-2.73209 0.22256,1.79735 0.21797,4.49735 -0.0102,6 -0.22818,1.50265 -0.41027,0.0321 -0.40466,-3.26791 z m -96.11492,0 c 0.0204,-1.65 0.2445,-2.20394 0.49804,-1.23097 0.25354,0.97297 0.23687,2.32297 -0.0371,3 -0.27393,0.67703 -0.48137,-0.11903 -0.46099,-1.76903 z m -73.19495,-0.87756 c 0,-0.20765 0.7875,-0.99515 1.75,-1.75 1.58606,-1.24387 1.62143,-1.2085 0.37756,0.37756 -1.30637,1.66575 -2.12756,2.19548 -2.12756,1.37244 z m 163.232,-7.62244 c 0,-1.925 0.2058,-2.7125 0.45733,-1.75 0.25152,0.9625 0.25152,2.5375 0,3.5 -0.25153,0.9625 -0.45733,0.175 -0.45733,-1.75 z m -159.482,-11.66228 c 0.6875,-0.27741 1.8125,-0.27741 2.5,0 0.6875,0.27741 0.125,0.50439 -1.25,0.50439 -1.375,0 -1.9375,-0.22698 -1.25,-0.50439 z m 79.40789,-1.33772 c 0,-1.375 0.22698,-1.9375 0.50439,-1.25 0.27741,0.6875 0.27741,1.8125 0,2.5 -0.27741,0.6875 -0.50439,0.125 -0.50439,-1.25 z m -86.07894,-0.58333 c 0.048,-1.16495 0.28494,-1.4019 0.60416,-0.60417 0.28887,0.72187 0.25335,1.58438 -0.0789,1.91667 -0.3323,0.33229 -0.56864,-0.25834 -0.52522,-1.3125 z m 128.73355,-7.09978 c 0.72187,-0.28887 1.58438,-0.25335 1.91667,0.0789 0.33229,0.33229 -0.25834,0.56864 -1.3125,0.52522 -1.16495,-0.048 -1.4019,-0.28494 -0.60417,-0.60416 z m 66.4195,-5.31689 c 0,-1.925 0.2058,-2.7125 0.45733,-1.75 0.25152,0.9625 0.25152,2.5375 0,3.5 -0.25153,0.9625 -0.45733,0.175 -0.45733,-1.75 z m -187.732,-6 c 0.99549,-1.1 2.03498,-2 2.30998,-2 0.275,0 -0.31449,0.9 -1.30998,2 -0.99549,1.1 -2.03498,2 -2.30998,2 -0.275,0 0.31449,-0.9 1.30998,-2 z m 148.90499,-3.25 -1.90499,-2.25 2.25,1.90499 c 2.11444,1.79022 2.70524,2.59501 1.90499,2.59501 -0.18976,0 -1.20226,-1.0125 -2.25,-2.25 z m 37.67396,-39.33333 c 0.048,-1.16495 0.28494,-1.4019 0.60416,-0.60417 0.28887,0.72187 0.25335,1.58437 -0.0789,1.91667 -0.33229,0.33229 -0.56864,-0.25834 -0.52522,-1.3125 z"
         id="path4911" />
      <path
         style="fill:#6b1685;fill-opacity:1"
         d="m -265.72422,406.38309 c -2.98519,-0.83477 -6.13519,-2.04652 -7,-2.69279 -7.77688,-5.81158 -10.90743,-11.16809 -11.72769,-20.06656 -0.83772,-9.08794 0.88535,-14.28192 6.56275,-19.78266 4.29113,-4.1576 5.76252,-4.85994 16.15681,-7.71217 6.28966,-1.7259 15.14869,-3.77856 19.68673,-4.56147 13.17551,-2.27305 16.26364,-5.91605 10.66012,-12.57546 -2.44782,-2.90907 -2.97913,-3.07653 -9.75,-3.07299 -8.34415,0.004 -13.18761,2.28155 -14.98589,7.04575 -1.04891,2.77887 -1.43543,2.9501 -6.64446,2.9434 -3.04192,-0.004 -8.56826,-0.29398 -12.28076,-0.6446 l -6.75,-0.6375 v -3.88751 c 0,-7.75982 5.43907,-15.90607 13.33738,-19.97581 8.65521,-4.45974 31.52799,-6.32398 42.32367,-3.44958 10.50687,2.79751 16.2347,7.58938 18.17655,15.20642 0.54623,2.14263 1.30431,17.31104 1.68461,33.70757 0.43205,18.62758 1.16619,31.61149 1.95685,34.60875 l 1.26539,4.79686 -12.11456,0.55816 c -13.24667,0.61032 -13.58862,0.48409 -13.61458,-5.02565 -0.0177,-3.74932 -0.59401,-3.97615 -3.45086,-1.35815 -1.13545,1.04052 -4.48556,3.14333 -7.44471,4.67291 -6.66297,3.44411 -17.66257,4.24776 -26.04735,1.90308 z m 21.75705,-19.09268 c 11.20429,-4.40885 15.17056,-9.59671 15.17056,-19.84304 0,-3.04267 -0.16832,-5.53212 -0.37405,-5.53212 -0.20572,0 -2.34322,1.09335 -4.75,2.42967 -2.40677,1.33632 -9.10095,3.8157 -14.87595,5.50973 -10.96864,3.21753 -14,5.30145 -14,9.62433 0,3.88912 2.27556,7.646 5.47576,9.04033 4.29121,1.86968 5.84187,1.72697 13.35368,-1.2289 z m 48.81043,-5.12516 c -0.36469,-13.0625 -0.95154,-33.3125 -1.3041,-45 l -0.64103,-21.25 h 11.65263 11.65263 v 5 c 0,2.75 0.27274,5 0.6061,5 0.33335,0 2.30629,-1.34658 4.38432,-2.99241 7.25609,-5.74693 13.63977,-7.98703 22.7917,-7.99782 9.72456,-0.0115 14.0686,1.49674 19.55428,6.78906 7.24293,6.98763 8.9067,11.79203 9.76614,28.20117 0.41769,7.975 0.7905,23.8375 0.82845,35.25 l 0.069,20.75 h -11.5 -11.5 v -29.99712 -29.99712 l -3.60775,-3.99335 c -4.79267,-5.30491 -9.29694,-6.52685 -16.34441,-4.43398 -6.34652,1.88472 -9.44489,4.96997 -10.93532,10.88901 -0.67785,2.69199 -1.11252,14.79422 -1.11252,30.97538 v 26.55718 h -11.84853 -11.84852 z m 84.69784,-3 c 0.36188,-13.6125 0.65893,-41.2875 0.66012,-61.5 l 0.002,-36.75 h 10.38337 c 9.92261,0 10.41012,0.0998 10.98634,2.25 0.33164,1.2375 0.65379,12.6 0.71589,25.25 0.0621,12.65 0.40574,26.825 0.76365,31.5 l 0.65075,8.5 13.42919,-17.25 13.42919,-17.25 h 13.37983 c 10.4344,0 13.21587,0.27517 12.63507,1.25 -0.40962,0.6875 -5.83618,8.1224 -12.05902,16.52201 -6.22284,8.39961 -11.31426,15.77982 -11.31426,16.40048 0,0.62065 6.3,13.15881 14,27.86257 7.7,14.70375 14,27.01104 14,27.34952 0,0.33848 -5.7375,0.61157 -12.75,0.60687 l -12.75,-0.009 -6.94442,-12.24145 c -3.81943,-6.7328 -8.46952,-14.85631 -10.33354,-18.05225 l -3.38912,-5.81081 -5.89039,7.81081 -5.89038,7.8108 -0.0261,10.25 -0.02605,10.25045 h -12.16012 -12.16013 z"
         id="path4909" />
    </g>
  </g>
</svg>
