<?xml version="1.0" encoding="UTF-8" standalone="no"?>
<!-- Created with Inkscape (http://www.inkscape.org/) -->

<svg
   version="1.1"
   id="svg1029"
   width="450.60999"
   height="491.51746"
   viewBox="0 0 450.60999 491.51746"
   sodipodi:docname="交行.svg"
   xml:space="preserve"
   inkscape:version="1.2.2 (b0a84865, 2022-12-01)"
   xmlns:inkscape="http://www.inkscape.org/namespaces/inkscape"
   xmlns:sodipodi="http://sodipodi.sourceforge.net/DTD/sodipodi-0.dtd"
   xmlns="http://www.w3.org/2000/svg"
   xmlns:svg="http://www.w3.org/2000/svg"><defs
     id="defs1033" /><sodipodi:namedview
     id="namedview1031"
     pagecolor="#ffffff"
     bordercolor="#000000"
     borderopacity="0.25"
     inkscape:showpageshadow="2"
     inkscape:pageopacity="0.0"
     inkscape:pagecheckerboard="0"
     inkscape:deskcolor="#d1d1d1"
     showgrid="false"
     inkscape:zoom="0.4609375"
     inkscape:cx="150.77966"
     inkscape:cy="242.98305"
     inkscape:window-width="1313"
     inkscape:window-height="458"
     inkscape:window-x="0"
     inkscape:window-y="25"
     inkscape:window-maximized="0"
     inkscape:current-layer="g1035" /><g
     inkscape:groupmode="layer"
     inkscape:label="Image"
     id="g1035"
     transform="translate(-37.18824,-7.523775)"><path
       style="fill:#143676;fill-opacity:1;stroke-width:0.963645"
       d="M 164.33923,498.82129 C 122.61724,495.63877 74.852011,466.66926 51.180101,430.19053 45.670923,421.70082 42.1369,414.46836 39.116152,405.5014 c -1.888724,-5.60658 -1.929612,-8.22716 -1.927868,-123.56406 9.64e-4,-64.80979 0.286029,-130.44739 0.633443,-145.86133 l 0.631669,-28.02533 13.098498,-9.03693 C 58.756066,94.043443 81.128722,78.209089 101.2689,63.826293 154.00561,26.165194 180.77923,7.5068967 182.05988,7.5237865 c 3.66692,0.048365 3.62905,-0.6186765 3.99818,70.4230245 0.32697,62.925079 1.27695,98.341199 2.67537,99.739619 0.29814,0.29815 9.57767,-8.50601 20.62116,-19.5648 11.87093,-11.88735 23.24677,-22.33794 27.82798,-25.56459 23.28414,-16.39955 45.54626,-23.42963 77.65039,-24.52095 32.35452,-1.09983 54.58008,3.91641 82.75676,18.67792 46.1367,24.17061 76.76227,65.24712 87.8671,117.85169 2.88757,13.67869 3.16374,47.69288 0.49683,61.19145 -8.5348,43.1988 -29.46106,77.10322 -62.68064,101.55424 -4.85073,3.57033 -10.33724,7.39255 -12.19226,8.49381 -4.252,2.52426 -20.33836,10.8894 -20.94057,10.8894 -0.24749,0 0.51483,-1.62615 1.69405,-3.61367 2.04875,-3.45307 13.76459,-45.5535 12.91359,-46.40451 -0.22528,-0.22528 -16.78019,0.10142 -36.78868,0.72597 -20.0085,0.62457 -38.83767,1.12982 -41.84261,1.12277 l -5.46352,-0.0128 -1.65501,5.05914 c -6.28926,19.22532 -20.72769,32.62518 -42.22166,39.1846 -30.0621,9.17419 -67.88212,0.17381 -89.13289,-21.21178 -8.67647,-8.73152 -13.6461,-17.13723 -17.61946,-29.80178 -3.11066,-9.91485 -3.10225,-29.38615 0.0176,-40.93061 7.14856,-26.45135 26.52677,-44.95009 55.21304,-52.70721 6.60448,-1.78595 10.43344,-2.16336 21.52458,-2.12163 15.66222,0.0589 23.87701,1.8515 36.80531,8.03148 22.63808,10.82144 33.48008,25.82696 38.50473,53.29117 l 1.5446,8.44269 4.45489,0.0183 c 2.45018,0.0101 20.88629,-0.5137 40.96914,-1.16399 l 36.51427,-1.18235 -0.57575,-10.64066 c -3.78001,-69.86014 -53.13446,-124.24764 -126.47283,-139.37017 -6.78924,-1.39996 -15.00727,-2.13362 -28.20699,-2.51816 -21.0498,-0.61325 -29.96251,0.24659 -48.13981,4.64422 -68.90835,16.67097 -110.472923,66.82297 -116.053015,140.03012 -5.076809,66.60428 26.290565,130.41332 77.142755,156.92756 10.81602,5.63945 10.08888,5.17443 9.65337,6.17354 -0.18772,0.43063 -4.04903,0.50014 -8.58069,0.15446 z"
       id="path1053" /></g></svg>
