<?xml version="1.0" encoding="UTF-8" standalone="no"?>
<!-- Created with Inkscape (http://www.inkscape.org/) -->

<svg
   version="1.1"
   id="svg5958"
   width="450.00598"
   height="346.69061"
   viewBox="0 0 450.00598 346.69061"
   sodipodi:docname="民生银行.svg"
   inkscape:version="1.2.2 (b0a84865, 2022-12-01)"
   xmlns:inkscape="http://www.inkscape.org/namespaces/inkscape"
   xmlns:sodipodi="http://sodipodi.sourceforge.net/DTD/sodipodi-0.dtd"
   xmlns="http://www.w3.org/2000/svg"
   xmlns:svg="http://www.w3.org/2000/svg">
  <defs
     id="defs5962" />
  <sodipodi:namedview
     id="namedview5960"
     pagecolor="#ffffff"
     bordercolor="#000000"
     borderopacity="0.25"
     inkscape:showpageshadow="2"
     inkscape:pageopacity="0.0"
     inkscape:pagecheckerboard="0"
     inkscape:deskcolor="#d1d1d1"
     showgrid="false"
     inkscape:zoom="0.4609375"
     inkscape:cx="185.49153"
     inkscape:cy="171.38983"
     inkscape:window-width="1313"
     inkscape:window-height="458"
     inkscape:window-x="0"
     inkscape:window-y="25"
     inkscape:window-maximized="0"
     inkscape:current-layer="g5964" />
  <g
     inkscape:groupmode="layer"
     inkscape:label="Image"
     id="g5964"
     transform="translate(-38.451807,-84.401818)">
    <g
       id="g5968"
       transform="matrix(1.2569795,0,0,1.2569795,410.07767,-59.86763)">
      <path
         style="fill:#d0d0d0;fill-opacity:1"
         d="m -132.83157,389.97791 c 0.72187,-0.28887 1.58437,-0.25335 1.91667,0.0789 0.33229,0.33229 -0.25834,0.56864 -1.3125,0.52522 -1.16495,-0.048 -1.4019,-0.28494 -0.60417,-0.60416 z m 22.4375,-0.006 c 0.9625,-0.25152 2.5375,-0.25152 3.5,0 0.9625,0.25153 0.175,0.45733 -1.75,0.45733 -1.925,0 -2.7125,-0.2058 -1.75,-0.45733 z M 40.855932,347.66102 c 0.99549,-1.1 2.03498,-2 2.30998,-2 0.275,0 -0.31449,0.9 -1.30998,2 -0.99549,1.1 -2.03498,2 -2.30998,2 -0.275,0 0.31449,-0.9 1.30998,-2 z m -264.062912,-12.25 -2.93709,-3.25 3.25,2.93709 c 3.02946,2.73778 3.70965,3.56291 2.93709,3.56291 -0.1721,0 -1.6346,-1.4625 -3.25,-3.25 z M 59.434882,306.07769 c 0.048,-1.16495 0.28494,-1.4019 0.60416,-0.60417 0.28887,0.72187 0.25335,1.58438 -0.0789,1.91667 -0.33229,0.33229 -0.56864,-0.25834 -0.52522,-1.3125 z M -156.83157,271.97791 c 0.72187,-0.28887 1.58437,-0.25335 1.91667,0.0789 0.33229,0.33229 -0.25834,0.56864 -1.3125,0.52522 -1.16495,-0.048 -1.4019,-0.28494 -0.60417,-0.60416 z m -121.40751,-36.56689 -1.90499,-2.25 2.25,1.90499 c 2.11445,1.79022 2.70524,2.59501 1.90499,2.59501 -0.18976,0 -1.20226,-1.0125 -2.25,-2.25 z m 37.7529,-32.75 c 0,-1.375 0.22698,-1.9375 0.50439,-1.25 0.27741,0.6875 0.27741,1.8125 0,2.5 -0.27741,0.6875 -0.50439,0.125 -0.50439,-1.25 z m -54.99999,-5 c 0,-1.375 0.22697,-1.9375 0.50438,-1.25 0.27742,0.6875 0.27742,1.8125 0,2.5 -0.27741,0.6875 -0.50438,0.125 -0.50438,-1.25 z m 73.8421,-34.5 c 1.29175,-1.375 2.57363,-2.5 2.84863,-2.5 0.275,0 -0.55688,1.125 -1.84863,2.5 -1.29175,1.375 -2.57363,2.5 -2.84863,2.5 -0.275,0 0.55688,-1.125 1.84863,-2.5 z m 83.8125,-32.18311 c 0.72187,-0.28887 1.58437,-0.25335 1.91667,0.0789 0.33229,0.33229 -0.25834,0.56864 -1.3125,0.52522 -1.16495,-0.048 -1.4019,-0.28494 -0.60417,-0.60416 z m 29,0 c 0.72187,-0.28887 1.58438,-0.25335 1.91667,0.0789 0.33229,0.33229 -0.25834,0.56864 -1.3125,0.52522 -1.16495,-0.048 -1.4019,-0.28494 -0.60417,-0.60416 z m -58,-15 c 0.72187,-0.28887 1.58437,-0.25335 1.91667,0.0789 0.33229,0.3323 -0.25834,0.56864 -1.3125,0.52522 -1.16495,-0.048 -1.4019,-0.28494 -0.60417,-0.60416 z m 58.9375,0.0208 c 0.6875,-0.27741 1.8125,-0.27741 2.5,0 0.6875,0.27741 0.125,0.50439 -1.25,0.50439 -1.375,0 -1.9375,-0.22698 -1.25,-0.50439 z m -34.45841,-1.08022 c 3.73537,-0.19293 9.58537,-0.19149 13,0.003 3.41462,0.19468 0.35841,0.35253 -6.79159,0.35078 -7.15,-0.002 -9.94379,-0.16103 -6.20841,-0.35396 z"
         id="path5982" />
      <path
         style="fill:#b9b9b9;fill-opacity:1"
         d="m -125.86055,389.92262 c 2.90594,-0.20265 7.40594,-0.20052 10,0.005 2.59406,0.20525 0.21648,0.37104 -5.28352,0.36844 -5.5,-0.003 -7.62242,-0.17053 -4.71648,-0.37317 z M 5.5879322,302.66102 c 0,-1.925 0.2058,-2.7125 0.45733,-1.75 0.25152,0.9625 0.25152,2.5375 0,3.5 -0.25153,0.9625 -0.45733,0.175 -0.45733,-1.75 z M -159.83157,271.97791 c 0.72187,-0.28887 1.58437,-0.25335 1.91667,0.0789 0.33229,0.33229 -0.25834,0.56864 -1.3125,0.52522 -1.16495,-0.048 -1.4019,-0.28494 -0.60417,-0.60416 z m 35.45653,-41.00988 c 0.97297,-0.25354 2.32297,-0.23687 3,0.0371 0.67703,0.27393 -0.11903,0.48137 -1.76903,0.46099 -1.65,-0.0204 -2.20394,-0.2445 -1.23097,-0.49804 z m 18.54347,-99.99012 c 0.72187,-0.28887 1.58438,-0.25335 1.91667,0.0789 0.33229,0.33229 -0.25834,0.56864 -1.3125,0.52522 -1.16495,-0.048 -1.4019,-0.28494 -0.60417,-0.60416 z"
         id="path5980" />
      <path
         style="fill:#a3a3a3;fill-opacity:1"
         d="m -9.1440678,336.66102 c 0.99549,-1.1 2.03498,-2 2.30998,-2 0.275,0 -0.31449,0.9 -1.30998,2 -0.99549,1.1 -2.0349802,2 -2.3099802,2 -0.275,0 0.31449,-0.9 1.3099802,-2 z M -274.83157,307.97791 c 0.72188,-0.28887 1.58438,-0.25335 1.91667,0.0789 0.33229,0.33229 -0.25833,0.56864 -1.3125,0.52522 -1.16494,-0.048 -1.4019,-0.28494 -0.60417,-0.60416 z m 20,-1 c 0.72187,-0.28887 1.58437,-0.25335 1.91667,0.0789 0.33229,0.33229 -0.25834,0.56864 -1.3125,0.52522 -1.16495,-0.048 -1.4019,-0.28494 -0.60417,-0.60416 z m 124,-38 c 0.72187,-0.28887 1.58437,-0.25335 1.91667,0.0789 0.33229,0.33229 -0.25834,0.56864 -1.3125,0.52522 -1.16495,-0.048 -1.4019,-0.28494 -0.60417,-0.60416 z m 4,0 c 0.72187,-0.28887 1.58437,-0.25335 1.91667,0.0789 0.33229,0.33229 -0.25834,0.56864 -1.3125,0.52522 -1.16495,-0.048 -1.4019,-0.28494 -0.60417,-0.60416 z m -2.0625,-37.97917 c 0.6875,-0.27741 1.8125,-0.27741 2.5,0 0.6875,0.27741 0.125,0.50439 -1.25,0.50439 -1.375,0 -1.9375,-0.22698 -1.25,-0.50439 z m 9.5,-0.0271 c 0.9625,-0.25152 2.5375,-0.25152 3.5,0 0.9625,0.25153 0.175,0.45733 -1.75,0.45733 -1.925,0 -2.7125,-0.2058 -1.75,-0.45733 z M 21.605932,199.9134 c 7.5625,-0.16988 19.9375,-0.16988 27.5,0 7.5625,0.16989 1.375,0.30888 -13.75,0.30888 -15.125,0 -21.3125,-0.13899 -13.75,-0.30888 z m -32.81291,-32.50238 -2.93709,-3.25 3.25,2.93709 c 3.0294602,2.73778 3.7096502,3.56291 2.9370902,3.56291 -0.1721,0 -1.6346,-1.4625 -3.2500002,-3.25 z m 50,-3 -2.93709,-3.25 3.25,2.93709 c 3.02946,2.73778 3.70965,3.56291 2.93709,3.56291 -0.1721,0 -1.6346,-1.4625 -3.25,-3.25 z M -273.64407,152.28346 c 0,-0.20765 0.7875,-0.99515 1.75,-1.75 1.58606,-1.24387 1.62143,-1.2085 0.37756,0.37756 -1.30637,1.66575 -2.12756,2.19548 -2.12756,1.37244 z"
         id="path5978" />
      <path
         style="fill:#5aa572;fill-opacity:1"
         d="m -124.65559,345.88901 c -2.46866,-1.4163 -17.53848,-10.29194 -33.48848,-19.72365 -15.95,-9.4317 -31.3625,-18.42512 -34.25,-19.98537 -2.8875,-1.56026 -5.25,-3.12413 -5.25,-3.47527 0,-0.35114 6.77774,-4.61746 15.06165,-9.4807 21.98975,-12.90954 21.38954,-11.90903 8.34621,-13.91265 -40.33548,-6.19603 -79.76482,-22.50079 -100.71386,-41.64705 -6.76475,-6.18259 -14.7715,-17.81019 -17.33963,-25.18103 -2.83119,-8.12586 -2.41828,-23.10589 0.89733,-32.5549 1.39585,-3.97795 3.68577,-9.19132 5.08872,-11.58527 20.69206,-35.30834 78.53825,-54.30238 159.5261,-52.38106 53.426012,1.26746 97.965092,9.87416 131.0592222,25.32581 19.0673798,8.90256 38.7472198,24.64061 47.7245498,38.16553 3.47971,5.24241 10.34971,18.26733 10.34971,19.62216 0,0.322 -12.0897,0.58546 -26.86601,0.58546 H 8.6239122 l -2.23481,-6.25 c -6.19857,-17.33532 -22.8501502,-34.16281 -44.5331702,-45.00363 -14.59135,-7.29521 -36.62905,-13.65764 -56.30122,-16.25452 -14.295072,-1.88706 -42.588852,-1.89991 -55.698782,-0.0253 -45.28897,6.47599 -75.69782,25.76354 -87.24449,55.33693 -3.46879,8.88428 -3.65777,20.87356 -0.46635,29.58572 6.41688,17.51721 26.39113,36.89379 48.61801,47.16324 15.91155,7.35159 29.0334,9.42799 44.09283,6.97724 5.5,-0.89507 13.2419,-1.63041 17.20423,-1.6341 l 7.20423,-0.007 35.524622,18.30555 c 19.53854,10.06837 35.53331,18.53087 35.54393,18.80587 0.0175,0.45366 -60.056502,36.24166 -67.398692,40.15154 -2.9921,1.59336 -3.2595,1.56082 -7.58984,-0.92355 z m 41.503192,-41.90566 c 1.09542,-0.64478 1.77042,-1.36118 1.5,-1.59201 -0.9344,-0.7976 -35.062372,-18.73032 -35.645892,-18.73032 -1.39215,0 -34.26479,18.57236 -34.06595,19.24656 0.12109,0.41061 7.57821,4.97277 16.57137,10.13815 l 16.35119,9.39159 16.64881,-8.64083 c 9.156842,-4.75245 17.545052,-9.16837 18.640472,-9.81314 z m -208.679172,4.99456 c 0.72188,-0.28887 1.58438,-0.25335 1.91667,0.0789 0.33229,0.33229 -0.25833,0.56864 -1.3125,0.52522 -1.16494,-0.048 -1.4019,-0.28494 -0.60417,-0.60416 z M 42.228372,264.91102 c -1.24387,-1.58606 -1.2085,-1.62143 0.37756,-0.37756 0.9625,0.75485 1.75,1.54235 1.75,1.75 0,0.82304 -0.82119,0.29331 -2.12756,-1.37244 z M -113.83157,230.97791 c 0.72187,-0.28887 1.58438,-0.25335 1.91667,0.0789 0.33229,0.33229 -0.25834,0.56864 -1.3125,0.52522 -1.16495,-0.048 -1.4019,-0.28494 -0.60417,-0.60416 z"
         id="path5976" />
      <path
         style="fill:#767676;fill-opacity:1"
         d="m -138.87616,372.93629 c 1.79735,-0.22256 4.49735,-0.21797 6,0.0102 1.50265,0.22818 0.0321,0.41027 -3.26791,0.40466 -3.3,-0.006 -4.52944,-0.1923 -2.73209,-0.41486 z m 21.04459,-0.95838 c 0.72187,-0.28887 1.58438,-0.25335 1.91667,0.0789 0.33229,0.33229 -0.25834,0.56864 -1.3125,0.52522 -1.16495,-0.048 -1.4019,-0.28494 -0.60417,-0.60416 z m -153.94006,-29.06689 c -1.24386,-1.58606 -1.20849,-1.62143 0.37756,-0.37756 0.9625,0.75485 1.75,1.54235 1.75,1.75 0,0.82304 -0.82119,0.29331 -2.12756,-1.37244 z m -4.46745,-4.5 -1.90499,-2.25 2.25,1.90499 c 2.11445,1.79022 2.70524,2.59501 1.90499,2.59501 -0.18976,0 -1.20226,-1.0125 -2.25,-2.25 z"
         id="path5974" />
      <path
         style="fill:#606060;fill-opacity:1"
         d="m -142.83157,388.97791 c 0.72187,-0.28887 1.58437,-0.25335 1.91667,0.0789 0.33229,0.33229 -0.25834,0.56864 -1.3125,0.52522 -1.16495,-0.048 -1.4019,-0.28494 -0.60417,-0.60416 z m 44.000002,0 c 0.72187,-0.28887 1.58438,-0.25335 1.91667,0.0789 0.33229,0.33229 -0.25834,0.56864 -1.3125,0.52522 -1.16495,-0.048 -1.4019,-0.28494 -0.60417,-0.60416 z m -31.000002,-16 c 0.72187,-0.28887 1.58437,-0.25335 1.91667,0.0789 0.33229,0.33229 -0.25834,0.56864 -1.3125,0.52522 -1.16495,-0.048 -1.4019,-0.28494 -0.60417,-0.60416 z m -157,-64 c 0.72188,-0.28887 1.58438,-0.25335 1.91667,0.0789 0.33229,0.33229 -0.25833,0.56864 -1.3125,0.52522 -1.16494,-0.048 -1.4019,-0.28494 -0.60417,-0.60416 z m 19,-1 c 0.72187,-0.28887 1.58437,-0.25335 1.91667,0.0789 0.33229,0.33229 -0.25834,0.56864 -1.3125,0.52522 -1.16495,-0.048 -1.4019,-0.28494 -0.60417,-0.60416 z m 20,-1 c 0.72187,-0.28887 1.58437,-0.25335 1.91667,0.0789 0.33229,0.33229 -0.25834,0.56864 -1.3125,0.52522 -1.16495,-0.048 -1.4019,-0.28494 -0.60417,-0.60416 z m 239.6245922,-36.56689 -2.9370902,-3.25 3.2500002,2.93709 c 3.02946,2.73778 3.70965,3.56291 2.93709,3.56291 -0.1721,0 -1.6346,-1.4625 -3.25,-3.25 z"
         id="path5972" />
      <path
         style="fill:#1d2088;fill-opacity:1"
         d="m -150.01381,388.6403 c -53.85229,-4.83444 -94.09953,-20.14399 -121.09903,-46.06459 -8.01908,-7.69864 -17.05554,-19.2333 -22.00423,-28.08747 l -2.53283,-4.53172 8.25292,-0.61733 c 4.5391,-0.33953 15.90291,-0.87885 25.25291,-1.19849 l 17,-0.58116 4.5,7.18875 c 5.49461,8.77764 21.45006,25.7478 31.30561,33.29654 14.9841,11.4769 30.84364,18.78268 49.69439,22.89198 17.90155,3.90239 52.45039,2.15185 83.913202,-4.25176 38.69438,-7.87544 65.30319,-22.17698 76.3547102,-41.03866 7.14108,-12.18771 7.63853,-32.34433 1.0798,-43.7539 -3.31608,-5.76867 -14.8067002,-17.09687 -23.6260502,-23.29211 -25.04306,-17.59173 -53.45813,-26.07904 -92.221662,-27.54572 l -16,-0.60539 -22.5,-12.55994 c -12.375,-6.90797 -26.51522,-14.8078 -31.42271,-17.55518 l -8.9227,-4.99525 38.4227,-19.28454 c 21.13249,-10.6065 38.93983,-19.30902 39.57187,-19.33894 0.63204,-0.0299 11.65704,5.7211 24.500002,12.78005 12.84296,7.05894 29.42584,16.14104 36.85084,20.18244 7.425,4.0414 14.30404,7.88235 15.28675,8.53545 1.55831,1.03563 -0.29559,2.43791 -14.5,10.96769 -8.95771,5.37914 -16.94568,10.38769 -17.75104,11.13011 -1.26126,1.16271 -1.10648,1.34986 1.11639,1.34986 3.69651,0 26.86288,4.46195 38.55706,7.42628 37.8157002,9.58578 67.99528,26.39884 80.20414,44.68175 9.19215,13.76534 12.22922,34.37008 7.23459,49.08241 -7.19631,21.19768 -27.84967,38.50309 -61.4294098,51.4716 -12.9580902,5.00442 -37.7035002,9.69313 -68.2184802,12.92592 -16.85547,1.78568 -63.144202,2.62349 -76.869742,1.39132 z m 51.619742,-179.25254 c 8.6625,-6.00407 15.73524,-11.2113 15.71721,-11.57162 -0.0576,-1.15048 -35.139302,-19.30306 -36.382882,-18.82585 -2.01143,0.77185 -32.06287,22.75163 -32.40419,23.70058 -0.42228,1.17407 35.02616,18.92147 36.31986,18.18368 0.55,-0.31366 8.0875,-5.48272 16.750002,-11.48679 z"
         id="path5970" />
    </g>
  </g>
</svg>
