<?xml version="1.0" encoding="UTF-8" standalone="no"?>
<!-- Created with Inkscape (http://www.inkscape.org/) -->

<svg
   version="1.1"
   id="svg3810"
   width="450.25"
   height="93.180397"
   viewBox="0 0 450.25 93.180397"
   sodipodi:docname="平安银行.svg"
   inkscape:version="1.2.2 (b0a84865, 2022-12-01)"
   xmlns:inkscape="http://www.inkscape.org/namespaces/inkscape"
   xmlns:sodipodi="http://sodipodi.sourceforge.net/DTD/sodipodi-0.dtd"
   xmlns="http://www.w3.org/2000/svg"
   xmlns:svg="http://www.w3.org/2000/svg">
  <defs
     id="defs3814" />
  <sodipodi:namedview
     id="namedview3812"
     pagecolor="#ffffff"
     bordercolor="#000000"
     borderopacity="0.25"
     inkscape:showpageshadow="2"
     inkscape:pageopacity="0.0"
     inkscape:pagecheckerboard="0"
     inkscape:deskcolor="#d1d1d1"
     showgrid="false"
     inkscape:zoom="0.4609375"
     inkscape:cx="187.66102"
     inkscape:cy="54.237288"
     inkscape:window-width="1313"
     inkscape:window-height="458"
     inkscape:window-x="0"
     inkscape:window-y="25"
     inkscape:window-maximized="0"
     inkscape:current-layer="g3816" />
  <g
     inkscape:groupmode="layer"
     inkscape:label="Image"
     id="g3816"
     transform="translate(-36.959278,-202.62875)">
    <g
       id="g3820"
       transform="matrix(0.99778336,0,0,0.99778336,6.5759731,-6.0448934)"
       style="fill:#ec681b;fill-opacity:1">
      <path
         style="fill:#ec681b;fill-opacity:1"
         d="m 79.324165,300.25028 c 21.353295,-0.15065 56.003295,-0.15058 76.999995,1.5e-4 20.99671,0.15072 3.52584,0.27398 -38.82416,0.2739 -42.35,-8e-5 -59.529126,-0.1234 -38.175835,-0.27405 z M 226.75,300.33772 c 0.6875,-0.27741 1.8125,-0.27741 2.5,0 0.6875,0.27741 0.125,0.50439 -1.25,0.50439 -1.375,0 -1.9375,-0.22698 -1.25,-0.50439 z m 25.51903,-0.0307 c 0.97297,-0.25354 2.32297,-0.23687 3,0.0371 0.67703,0.27393 -0.11903,0.48137 -1.76903,0.46099 -1.65,-0.0204 -2.20394,-0.2445 -1.23097,-0.49804 z m 8.16259,-0.62461 c -0.27809,-0.72469 -0.37647,-6.01219 -0.21862,-11.75 0.26497,-9.63152 0.44054,-10.43994 2.287,-10.53068 1.52243,-0.0748 1.58212,0.001 0.25,0.31955 -1.5336,0.36616 -1.75,1.76086 -1.75,11.27873 0,10.46808 0.0814,10.87657 2.25,11.29427 l 2.25,0.43337 -2.28138,0.13618 c -1.25477,0.0749 -2.50891,-0.45674 -2.787,-1.18142 z m 20.31838,0.65532 c 0.6875,-0.27741 1.8125,-0.27741 2.5,0 0.6875,0.27741 0.125,0.50439 -1.25,0.50439 -1.375,0 -1.9375,-0.22698 -1.25,-0.50439 z m 65.68162,-0.65532 c -0.27809,-0.72469 -0.37647,-6.01219 -0.21862,-11.75 0.26497,-9.63152 0.44054,-10.43994 2.287,-10.53068 1.52243,-0.0748 1.58212,0.001 0.25,0.31955 -1.5336,0.36616 -1.75,1.76086 -1.75,11.27873 0,10.46808 0.0814,10.87657 2.25,11.29427 l 2.25,0.43337 -2.28138,0.13618 c -1.25477,0.0749 -2.50891,-0.45674 -2.787,-1.18142 z m 20.31838,0.65532 c 0.6875,-0.27741 1.8125,-0.27741 2.5,0 0.6875,0.27741 0.125,0.50439 -1.25,0.50439 -1.375,0 -1.9375,-0.22698 -1.25,-0.50439 z m -74.33286,-4.69305 c -0.28605,-0.74543 -0.35863,-4.23293 -0.16129,-7.75 l 0.35879,-6.39467 0.19268,7.20431 0.19268,7.20431 6.75,0.34983 6.75,0.34983 -6.78138,0.19586 c -4.92565,0.14226 -6.92371,-0.17503 -7.30148,-1.15947 z m 118.35077,-0.3694 c 1.79735,-0.22256 4.49735,-0.21797 6,0.0102 1.50265,0.22818 0.0321,0.41027 -3.26791,0.40466 -3.3,-0.006 -4.52944,-0.1923 -2.73209,-0.41486 z M 287.30987,289.5 c 0.006,-3.3 0.1923,-4.52944 0.41486,-2.73209 0.22256,1.79735 0.21797,4.49735 -0.0102,6 -0.22818,1.50265 -0.41027,0.0321 -0.40466,-3.26791 z m -167.93558,3.03299 c -0.30962,-0.80686 -0.36997,-2.04436 -0.1341,-2.75 0.23587,-0.70564 0.66592,-0.0455 0.95566,1.46701 0.56574,2.95322 0.099,3.68204 -0.82156,1.28299 z m 114.39362,0.74228 c 1.79735,-0.22256 4.49735,-0.21797 6,0.0102 1.50265,0.22818 0.0321,0.41027 -3.26791,0.40466 -3.3,-0.006 -4.52944,-0.1923 -2.73209,-0.41486 z m 45.66453,-8.02199 c 0.0639,-7.32873 0.1916,-7.76057 2.33289,-7.88633 1.80272,-0.10588 1.86212,-0.0417 0.2909,0.31419 -1.70663,0.38658 -2.02303,1.45617 -2.33289,7.88633 l -0.35847,7.4391 0.0676,-7.75329 z m 83.97207,6.59221 c -0.43188,-0.6988 -0.27536,-0.88371 0.39654,-0.46845 0.76549,0.4731 1.20145,-1.57415 1.4045,-6.59549 0.26194,-6.47755 0.51528,-7.2924 2.29445,-7.37983 1.52243,-0.0748 1.58212,10e-4 0.25,0.31955 -1.47217,0.3515 -1.75,1.5975 -1.75,7.84828 0,6.91287 -0.88271,9.04728 -2.59549,6.27594 z M 84.8125,291.31689 c 0.721875,-0.28887 1.584375,-0.25335 1.916667,0.0789 0.332291,0.33229 -0.258334,0.56864 -1.3125,0.52522 -1.164943,-0.048 -1.4019,-0.28494 -0.604167,-0.60416 z M 128.232,289 c 0,-1.925 0.2058,-2.7125 0.45733,-1.75 0.25152,0.9625 0.25152,2.5375 0,3.5 -0.25153,0.9625 -0.45733,0.175 -0.45733,-1.75 z m 23.33229,1.29313 c -0.54268,-1.4252 -0.42782,-1.54006 0.5598,-0.5598 0.68342,0.67834 0.99067,1.48524 0.68278,1.79313 -0.30789,0.30789 -0.86705,-0.24711 -1.24258,-1.23333 z m 149.19737,0.99961 c 1.24391,-0.23919 3.04391,-0.23011 4,0.0202 0.95609,0.25029 -0.0617,0.446 -2.26166,0.4349 -2.2,-0.0111 -2.98225,-0.21589 -1.73834,-0.45508 z m 111,0 c 1.24391,-0.23919 3.04391,-0.23011 4,0.0202 0.95609,0.25029 -0.0617,0.446 -2.26166,0.4349 -2.2,-0.0111 -2.98225,-0.21589 -1.73834,-0.45508 z M 32.450803,256 c 0,-19.525 0.133953,-27.5125 0.297673,-17.75 0.16372,9.7625 0.16372,25.7375 0,35.5 -0.16372,9.7625 -0.297673,1.775 -0.297673,-17.75 z m 32.805932,34 C 65.740492,288.22582 69,287.34259 69,288.98569 c 0,0.62279 -0.500312,0.82313 -1.111803,0.44521 -0.611492,-0.37792 -1.545751,-0.067 -2.076131,0.69098 -0.792625,1.13274 -0.891504,1.11104 -0.555331,-0.12188 z M 168.116,289.83179 c -0.0638,-0.91752 -0.37498,-2.49252 -0.69151,-3.5 -0.54548,-1.73622 -0.51588,-1.73885 0.56728,-0.0504 0.62853,0.97978 0.9397,2.55478 0.6915,3.5 -0.40654,1.54825 -0.46276,1.55325 -0.56727,0.0504 z m 68.3215,-0.54778 c 5.37881,-0.37559 5.45272,-0.42403 5.85985,-3.84085 0.40952,-3.43681 0.41162,-3.43478 0.30749,0.29819 L 242.5,289.5 l -5.75501,0.0822 -5.755,0.0822 5.44751,-0.3804 z m -163.625,-0.96712 c 0.721875,-0.28887 1.584375,-0.25335 1.916667,0.0789 0.332291,0.33229 -0.258334,0.56864 -1.3125,0.52522 -1.164943,-0.048 -1.4019,-0.28494 -0.604167,-0.60416 z M 385.25,287.31067 c 0.9625,-0.25152 2.5375,-0.25152 3.5,0 0.9625,0.25153 0.175,0.45733 -1.75,0.45733 -1.925,0 -2.7125,-0.2058 -1.75,-0.45733 z M 82.5,286 c -0.339919,-0.55 -0.141476,-1 0.440983,-1 C 83.523442,285 84,285.45 84,286 c 0,0.55 -0.198442,1 -0.440983,1 -0.242541,0 -0.719098,-0.45 -1.059017,-1 z m 28.3125,-0.68311 c 0.72187,-0.28887 1.58437,-0.25335 1.91667,0.0789 0.33229,0.33229 -0.25834,0.56864 -1.3125,0.52522 -1.16495,-0.048 -1.4019,-0.28494 -0.60417,-0.60416 z M 120,284 c -0.5887,-1.1 -0.84537,-2 -0.57037,-2 0.275,0 0.98167,0.9 1.57037,2 0.5887,1.1 0.84537,2 0.57037,2 -0.275,0 -0.98167,-0.9 -1.57037,-2 z m 187.75,1.33772 c 0.6875,-0.27741 1.8125,-0.27741 2.5,0 0.6875,0.27741 0.125,0.50439 -1.25,0.50439 -1.375,0 -1.9375,-0.22698 -1.25,-0.50439 z M 85,284.03138 c 0,-0.53273 0.675,-0.70959 1.5,-0.39301 0.825,0.31659 1.5,0.75246 1.5,0.96862 C 88,284.82314 87.325,285 86.5,285 85.675,285 85,284.56412 85,284.03138 Z M 106,284 c 0,-0.55 0.45,-1 1,-1 0.55,0 1,0.45 1,1 0,0.55 -0.45,1 -1,1 -0.55,0 -1,-0.45 -1,-1 z m -25.1875,-2.68311 c 0.721875,-0.28887 1.584375,-0.25335 1.916667,0.0789 0.332291,0.33229 -0.258334,0.56864 -1.3125,0.52522 -1.164943,-0.048 -1.4019,-0.28494 -0.604167,-0.60416 z m 29.45653,-0.01 c 0.97297,-0.25354 2.32297,-0.23687 3,0.0371 0.67703,0.27393 -0.11903,0.48137 -1.76903,0.46099 -1.65,-0.0204 -2.20394,-0.2445 -1.23097,-0.49804 z m 13.98097,0.004 c 0.9625,-0.25152 2.5375,-0.25152 3.5,0 0.9625,0.25153 0.175,0.45733 -1.75,0.45733 -1.925,0 -2.7125,-0.2058 -1.75,-0.45733 z m 261.51166,-0.0179 c 1.24391,-0.23919 3.04391,-0.23011 4,0.0202 0.95609,0.25029 -0.0617,0.446 -2.26166,0.4349 -2.2,-0.0111 -2.98225,-0.21589 -1.73834,-0.45508 z M 229.77643,277.2665 c 2.35204,-0.21124 5.95204,-0.20827 8,0.007 2.04796,0.21487 0.12357,0.38771 -4.27643,0.38408 -4.4,-0.004 -6.07561,-0.17944 -3.72357,-0.39069 z m 22.4926,0.0405 c 0.97297,-0.25354 2.32297,-0.23687 3,0.0371 0.67703,0.27393 -0.11903,0.48137 -1.76903,0.46099 -1.65,-0.0204 -2.20394,-0.2445 -1.23097,-0.49804 z M 245.29966,257 c 0,-3.025 0.18747,-4.2625 0.41659,-2.75 0.22913,1.5125 0.22913,3.9875 0,5.5 -0.22912,1.5125 -0.41659,0.275 -0.41659,-2.75 z m -63.22071,-2.58333 c 0.048,-1.16495 0.28494,-1.4019 0.60416,-0.60417 0.28887,0.72187 0.25335,1.58437 -0.0789,1.91667 -0.3323,0.33229 -0.56864,-0.25834 -0.52522,-1.3125 z M 387.34941,248 c 0,-4.675 0.17226,-6.5875 0.3828,-4.25 0.21053,2.3375 0.21053,6.1625 0,8.5 -0.21054,2.3375 -0.3828,0.425 -0.3828,-4.25 z m -294.270463,1.41667 c 0.04798,-1.16495 0.284941,-1.4019 0.604167,-0.60417 0.288871,0.72187 0.253344,1.58437 -0.07895,1.91667 -0.332292,0.33229 -0.568641,-0.25834 -0.52522,-1.3125 z M 110.15789,249 c 0,-1.375 0.22698,-1.9375 0.50439,-1.25 0.27741,0.6875 0.27741,1.8125 0,2.5 -0.27741,0.6875 -0.50439,0.125 -0.50439,-1.25 z m 170.03706,-0.5 c 0.0204,-1.65 0.2445,-2.20394 0.49804,-1.23097 0.25354,0.97297 0.23687,2.32297 -0.0371,3 -0.27393,0.67703 -0.48137,-0.11903 -0.46099,-1.76903 z m -197.885081,-5 c 0.0056,-3.3 0.192301,-4.52944 0.414862,-2.73209 0.222562,1.79735 0.217969,4.49735 -0.0102,6 -0.228174,1.50265 -0.41027,0.0321 -0.404657,-3.26791 z M 123.75,248.2766 c 1.7875,-0.22182 4.7125,-0.22182 6.5,0 1.7875,0.22183 0.325,0.40333 -3.25,0.40333 -3.575,0 -5.0375,-0.1815 -3.25,-0.40333 z m 17,0 c 1.7875,-0.22182 4.7125,-0.22182 6.5,0 1.7875,0.22183 0.325,0.40333 -3.25,0.40333 -3.575,0 -5.0375,-0.1815 -3.25,-0.40333 z m -13,-1.93888 c 0.6875,-0.27741 1.8125,-0.27741 2.5,0 0.6875,0.27741 0.125,0.50439 -1.25,0.50439 -1.375,0 -1.9375,-0.22698 -1.25,-0.50439 z M 139,246.6135 c 0,-0.21258 1.32623,-0.58115 2.94719,-0.81906 1.62095,-0.2379 2.71939,-0.064 2.44098,0.3865 C 143.89266,246.9827 139,247.37548 139,246.6135 Z m 23.90744,-1.92399 c 0.44745,-0.44577 3.01382,-0.66358 5.70305,-0.48403 l 4.88951,0.32646 -5.70305,0.48403 c -3.13668,0.26622 -5.33696,0.11931 -4.88951,-0.32646 z M 154.75,244.33772 c 0.6875,-0.27741 1.8125,-0.27741 2.5,0 0.6875,0.27741 0.125,0.50439 -1.25,0.50439 -1.375,0 -1.9375,-0.22698 -1.25,-0.50439 z m 24.51903,-0.0307 c 0.97297,-0.25354 2.32297,-0.23687 3,0.0371 0.67703,0.27393 -0.11903,0.48137 -1.76903,0.46099 -1.65,-0.0204 -2.20394,-0.2445 -1.23097,-0.49804 z m 53.72935,-0.0396 L 245,243.93847 V 232.502 221.06553 l -11.00186,-0.33421 -11.00185,-0.33421 11.25185,0.0515 11.25186,0.0515 v 12 12 l -12.25162,0.0482 -12.25162,0.0482 12.00162,-0.32895 z M 96.269032,242.30701 c 0.972967,-0.25354 2.322967,-0.23687 3,0.0371 0.677032,0.27393 -0.119032,0.48137 -1.769032,0.46099 -1.65,-0.0204 -2.203936,-0.2445 -1.230968,-0.49804 z m -2.602365,-1.97368 c -0.366667,-0.36666 -0.659776,-1.15416 -0.651354,-1.75 0.01005,-0.71118 0.268812,-0.68492 0.75325,0.0764 0.405866,0.63787 2.086475,1.35794 3.734687,1.60017 l 2.99675,0.4404 -3.083333,0.14983 c -1.695834,0.0824 -3.383334,-0.15017 -3.75,-0.51684 z m 12.830083,-0.0327 c 1.64821,-0.26459 3.36997,-1.00296 3.82613,-1.64083 0.56008,-0.78319 0.69848,-0.67271 0.42624,0.34023 -0.24816,0.92334 -1.71907,1.55414 -3.82613,1.64083 -3.13574,0.12901 -3.17151,0.10046 -0.42624,-0.34023 z M 145,239 l -2.5,-0.80064 2.75,-0.0997 C 146.7625,238.04486 148,238.45 148,239 c 0,0.55 -0.1125,0.95514 -0.25,0.90032 C 147.6125,239.8455 146.375,239.44035 145,239 Z m 287.8125,0.31689 c 0.72187,-0.28887 1.58438,-0.25335 1.91667,0.0789 0.33229,0.33229 -0.25834,0.56864 -1.3125,0.52522 -1.16495,-0.048 -1.4019,-0.28494 -0.60417,-0.60416 z M 123.75,238.33772 c 0.6875,-0.27741 1.8125,-0.27741 2.5,0 0.6875,0.27741 0.125,0.50439 -1.25,0.50439 -1.375,0 -1.9375,-0.22698 -1.25,-0.50439 z M 168,237 l -11.5,-0.60107 11.19098,-0.19946 c 6.60654,-0.11776 11.44417,0.21019 11.80902,0.80053 0.33992,0.55 0.47898,0.91024 0.30902,0.80053 C 179.63906,237.69083 174.325,237.33059 168,237 Z m -46.33333,-0.66667 c -0.36667,-0.36666 -0.65978,-1.15416 -0.65136,-1.75 0.01,-0.68727 0.2919,-0.64833 0.77183,0.1065 0.41608,0.6544 3.22169,1.35866 6.23469,1.56501 l 5.47817,0.3752 -5.58333,0.18498 c -3.07084,0.10174 -5.88334,-0.11502 -6.25,-0.48169 z m 19.10124,-0.0581 c 1.79735,-0.22256 4.49735,-0.21797 6,0.0102 1.50265,0.22818 0.0321,0.41027 -3.26791,0.40466 -3.3,-0.006 -4.52944,-0.1923 -2.73209,-0.41486 z m 301.62162,-0.70254 c -0.30123,-0.785 -0.34839,-2.4725 -0.10479,-3.75 0.34065,-1.78649 0.47434,-1.57997 0.57908,0.89452 L 443,235.9345 l 11.25,0.31899 11.25,0.319 -11.28138,0.21375 c -8.99375,0.17041 -11.39245,-0.0757 -11.82909,-1.21351 z m 34.80135,0.73966 c 3.27705,-0.3783 3.74017,-0.78409 4.13052,-3.61923 0.42528,-3.08885 0.43538,-3.07883 0.30912,0.30684 -0.12581,3.3736 -0.27497,3.50431 -4.13052,3.61923 l -4,0.11924 z m -318.92713,-3.02997 c 1.52006,-0.22986 3.77006,-0.22371 5,0.0136 1.22994,0.23736 -0.0137,0.42542 -2.76375,0.41792 -2.75,-0.008 -3.75631,-0.20172 -2.23625,-0.43157 z m 14.98625,0.001 c 1.5125,-0.22913 3.9875,-0.22913 5.5,0 1.5125,0.22912 0.275,0.41659 -2.75,0.41659 -3.025,0 -4.2625,-0.18747 -2.75,-0.41659 z M 387.15789,232 c 0,-1.375 0.22698,-1.9375 0.50439,-1.25 0.27741,0.6875 0.27741,1.8125 0,2.5 -0.27741,0.6875 -0.50439,0.125 -0.50439,-1.25 z M 95.75,232.2596 c 3.4375,-0.19527 9.0625,-0.19527 12.5,0 3.4375,0.19527 0.625,0.35504 -6.25,0.35504 -6.875,0 -9.6875,-0.15977 -6.25,-0.35504 z m 337.51375,-3.97718 c 1.52006,-0.22986 3.77006,-0.22371 5,0.0136 1.22994,0.23736 -0.0138,0.42542 -2.76375,0.41792 -2.75,-0.008 -3.75631,-0.20172 -2.23625,-0.43157 z m -206,-4 c 1.52006,-0.22986 3.77006,-0.22371 5,0.0136 1.22994,0.23736 -0.0137,0.42542 -2.76375,0.41792 -2.75,-0.008 -3.75631,-0.20172 -2.23625,-0.43157 z M 338.15789,223 c 0,-1.375 0.22698,-1.9375 0.50439,-1.25 0.27741,0.6875 0.27741,1.8125 0,2.5 -0.27741,0.6875 -0.50439,0.125 -0.50439,-1.25 z m 23.73647,0.70087 c 0.44214,-0.43952 3.90929,-0.65995 7.70477,-0.48984 l 6.90087,0.30929 -7.70477,0.48984 c -4.23763,0.26941 -7.34302,0.13023 -6.90087,-0.30929 z m 30.38581,-4.43714 c 2.6291,-0.20668 6.6791,-0.20418 9,0.006 2.32091,0.20972 0.16983,0.37882 -4.78017,0.37577 -4.95,-0.003 -6.84892,-0.17464 -4.21983,-0.38131 z M 444.232,217 c 0,-1.925 0.2058,-2.7125 0.45733,-1.75 0.25152,0.9625 0.25152,2.5375 0,3.5 -0.25153,0.9625 -0.45733,0.175 -0.45733,-1.75 z m 35,0 c 0,-1.925 0.2058,-2.7125 0.45733,-1.75 0.25152,0.9625 0.25152,2.5375 0,3.5 -0.25153,0.9625 -0.45733,0.175 -0.45733,-1.75 z m -159.15305,-4.58333 c 0.048,-1.16495 0.28494,-1.4019 0.60416,-0.60417 0.28887,0.72187 0.25335,1.58437 -0.0789,1.91667 -0.33229,0.33229 -0.56864,-0.25834 -0.52522,-1.3125 z M 358.65451,212.75 C 358.90945,212.3375 360.86492,212 363,212 c 2.13508,0 4.09055,0.3375 4.34549,0.75 0.25494,0.4125 -1.70053,0.75 -4.34549,0.75 -2.64496,0 -4.60043,-0.3375 -4.34549,-0.75 z M 79.324165,211.25028 c 21.353295,-0.15065 56.003295,-0.15058 76.999995,1.5e-4 20.99671,0.15072 3.52584,0.27398 -38.82416,0.2739 -42.35,-8e-5 -59.529126,-0.1234 -38.175835,-0.27405 z"
         id="path3832" />
      <path
         style="fill:#ec681b;fill-opacity:1"
         d="m 79.175949,302.25044 c 20.721771,-0.15089 54.921771,-0.15096 76.000001,-1.5e-4 21.07823,0.1508 4.12405,0.27426 -37.67595,0.27434 -41.8,8e-5 -59.045823,-0.1233 -38.324051,-0.27419 z m 239.093081,-1.94343 c 0.97297,-0.25354 2.32297,-0.23687 3,0.0371 0.67703,0.27393 -0.11903,0.48137 -1.76903,0.46099 -1.65,-0.0204 -2.20394,-0.2445 -1.23097,-0.49804 z m 22.48097,0.0307 c 0.6875,-0.27741 1.8125,-0.27741 2.5,0 0.6875,0.27741 0.125,0.50439 -1.25,0.50439 -1.375,0 -1.9375,-0.22698 -1.25,-0.50439 z m -141.14699,-2.17105 c -0.28327,-0.45834 0.12038,-0.83334 0.89699,-0.83334 0.77661,0 1.18026,0.375 0.89699,0.83334 C 201.11373,298.625 200.71008,299 200.5,299 c -0.21008,0 -0.61373,-0.375 -0.89699,-0.83333 z m 129.64699,-4.856 c 0.9625,-0.25152 2.5375,-0.25152 3.5,0 0.9625,0.25153 0.175,0.45733 -1.75,0.45733 -1.925,0 -2.7125,-0.2058 -1.75,-0.45733 z M 459,293.62244 c 0,-0.20765 0.7875,-0.99515 1.75,-1.75 1.58606,-1.24387 1.62143,-1.2085 0.37756,0.37756 C 459.82119,293.91575 459,294.44548 459,293.62244 Z m -298.65492,-2.16557 c -0.32569,-0.84872 -0.36872,-1.76657 -0.0956,-2.03966 0.27309,-0.2731 0.73656,0.42131 1.02992,1.54313 0.62315,2.38293 -0.0692,2.75089 -0.9343,0.49653 z m -52.18664,-1.57477 c -0.99063,-1.58626 -1.03614,-2.40208 -0.1813,-3.25 0.85326,-0.84635 0.9573,-0.64898 0.41217,0.78194 -0.47272,1.24086 -0.35769,1.68445 0.32706,1.26125 0.58094,-0.35904 1.29028,0.24214 1.57632,1.33596 0.68252,2.60996 -0.46708,2.5404 -2.13425,-0.12915 z m 4.45465,0.93492 c 0.28881,-0.4673 0.94401,-0.59075 1.45601,-0.27431 1.30838,0.80862 1.16106,1.12396 -0.52511,1.12396 -0.80081,0 -1.21971,-0.38234 -0.9309,-0.84965 z M 30.450803,256 c 0,-19.525 0.133953,-27.5125 0.297673,-17.75 0.16372,9.7625 0.16372,25.7375 0,35.5 -0.16372,9.7625 -0.297673,1.775 -0.297673,-17.75 z m 136.628147,33.41667 c 0.048,-1.16495 0.28494,-1.4019 0.60416,-0.60417 0.28887,0.72187 0.25335,1.58438 -0.0789,1.91667 -0.3323,0.33229 -0.56864,-0.25834 -0.52522,-1.3125 z m -82.868377,-1.81581 c 0.709185,-0.76953 1.446988,-1.24947 1.639563,-1.06653 0.593148,0.56346 -0.910139,2.46567 -1.94858,2.46567 -0.539225,0 -0.400167,-0.62961 0.309017,-1.39914 z m 59.868377,-1.18419 c 0.048,-1.16495 0.28494,-1.4019 0.60416,-0.60417 0.28887,0.72187 0.25335,1.58438 -0.0789,1.91667 -0.3323,0.33229 -0.56864,-0.25834 -0.52522,-1.3125 z m -79.34541,-1.32761 c -0.340927,-1.30371 -0.08575,-1.77771 0.778494,-1.44607 0.707116,0.27135 1.58274,0.0127 1.945832,-0.57482 0.363093,-0.58749 1.87111,-1.00689 3.351151,-0.93199 2.654889,0.13436 2.657883,0.14238 0.223206,0.59809 -1.357277,0.25405 -3.215618,1.32418 -4.129645,2.37806 -1.636811,1.88726 -1.669515,1.88691 -2.169038,-0.0233 z m 101.83075,-0.38219 c 0.37553,-0.98622 0.93469,-1.54122 1.24258,-1.23333 0.30789,0.30789 6.4e-4,1.11479 -0.68278,1.79313 -0.98762,0.98026 -1.10248,0.8654 -0.5598,-0.5598 z M 144,283.05902 c 0,-0.51754 0.44485,-1.21592 0.98855,-1.55194 0.56686,-0.35034 0.7345,0.0511 0.39301,0.94098 C 144.71677,284.18048 144,284.49745 144,283.05902 Z m 89.76791,-1.78375 c 1.79735,-0.22256 4.49735,-0.21797 6,0.0102 1.50265,0.22818 0.0321,0.41027 -3.26791,0.40466 -3.3,-0.006 -4.52944,-0.1923 -2.73209,-0.41486 z M 198.43466,245 c 0,-14.025 0.14065,-19.7625 0.31255,-12.75 0.1719,7.0125 0.1719,18.4875 0,25.5 -0.1719,7.0125 -0.31255,1.275 -0.31255,-12.75 z m 227.92584,7 c 0,-5.225 0.16854,-7.3625 0.37454,-4.75 0.206,2.6125 0.206,6.8875 0,9.5 -0.206,2.6125 -0.37454,0.475 -0.37454,-4.75 z m 23.83445,6.5 c 0.0204,-1.65 0.2445,-2.20394 0.49804,-1.23097 0.25354,0.97297 0.23687,2.32297 -0.0371,3 -0.27393,0.67703 -0.48137,-0.11903 -0.46099,-1.76903 z m -89.88508,-6 c 0.006,-3.3 0.1923,-4.52944 0.41486,-2.73209 0.22256,1.79735 0.21797,4.49735 -0.0102,6 -0.22818,1.50265 -0.41027,0.0321 -0.40466,-3.26791 z m -207.23092,1.91667 c 0.048,-1.16495 0.28494,-1.4019 0.60416,-0.60417 0.28887,0.72187 0.25335,1.58437 -0.0789,1.91667 -0.3323,0.33229 -0.56864,-0.25834 -0.52522,-1.3125 z m -33,-4 c 0.048,-1.16495 0.28494,-1.4019 0.60416,-0.60417 0.28887,0.72187 0.25335,1.58437 -0.0789,1.91667 -0.3323,0.33229 -0.56864,-0.25834 -0.52522,-1.3125 z m 30,0 c 0.048,-1.16495 0.28494,-1.4019 0.60416,-0.60417 0.28887,0.72187 0.25335,1.58437 -0.0789,1.91667 -0.3323,0.33229 -0.56864,-0.25834 -0.52522,-1.3125 z m -93.676969,-2.81151 c -0.294388,-0.76716 -0.355911,-3.12966 -0.136719,-5.25 0.38348,-3.70956 0.404881,-3.67805 0.566635,0.83447 0.166568,4.64683 0.202336,4.69322 3.918103,5.0819 l 3.75,0.39226 -3.781385,0.16811 c -2.436818,0.10833 -3.971706,-0.32787 -4.316634,-1.22674 z M 71.75,248.29427 c 1.2375,-0.23836 3.2625,-0.23836 4.5,0 1.2375,0.23835 0.225,0.43337 -2.25,0.43337 -2.475,0 -3.4875,-0.19502 -2.25,-0.43337 z m 33.51903,-5.98726 c 0.97297,-0.25354 2.32297,-0.23687 3,0.0371 0.67703,0.27393 -0.11903,0.48137 -1.76903,0.46099 -1.65,-0.0204 -2.20394,-0.2445 -1.23097,-0.49804 z m 288.49263,-0.0143 c 1.24391,-0.23919 3.04391,-0.23011 4,0.0202 0.95609,0.25029 -0.0617,0.446 -2.26166,0.4349 -2.2,-0.0111 -2.98225,-0.21589 -1.73834,-0.45508 z M 158.2522,240 c 0.22245,-0.825 1.49421,-1.58309 2.82613,-1.68464 1.90949,-0.1456 1.99867,-0.0683 0.42167,0.36568 -1.1,0.30268 -2.37176,1.06077 -2.82613,1.68464 -0.54586,0.74949 -0.68891,0.62542 -0.42167,-0.36568 z m 100.37696,0.20899 c -0.26888,-0.43506 1.16707,-0.62744 3.19099,-0.42752 5.53417,0.54664 6.19307,1.05097 1.48887,1.13958 -2.30504,0.0434 -4.41098,-0.277 -4.67986,-0.71206 z M 304.15789,239 c 0,-1.375 0.22698,-1.9375 0.50439,-1.25 0.27741,0.6875 0.27741,1.8125 0,2.5 -0.27741,0.6875 -0.50439,0.125 -0.50439,-1.25 z m 31,0 c 0,-1.375 0.22698,-1.9375 0.50439,-1.25 0.27741,0.6875 0.27741,1.8125 0,2.5 -0.27741,0.6875 -0.50439,0.125 -0.50439,-1.25 z m 25.03706,-1.5 c 0.0204,-1.65 0.2445,-2.20394 0.49804,-1.23097 0.25354,0.97297 0.23687,2.32297 -0.0371,3 -0.27393,0.67703 -0.48137,-0.11903 -0.46099,-1.76903 z M 174.75,238.33772 c 0.6875,-0.27741 1.8125,-0.27741 2.5,0 0.6875,0.27741 0.125,0.50439 -1.25,0.50439 -1.375,0 -1.9375,-0.22698 -1.25,-0.50439 z m -77,-1.06993 c 2.3375,-0.21053 6.1625,-0.21053 8.5,0 2.3375,0.21054 0.425,0.3828 -4.25,0.3828 -4.675,0 -6.5875,-0.17226 -4.25,-0.3828 z m 51.32895,-2.85112 c 0.048,-1.16495 0.28494,-1.4019 0.60416,-0.60417 0.28887,0.72187 0.25335,1.58437 -0.0789,1.91667 -0.3323,0.33229 -0.56864,-0.25834 -0.52522,-1.3125 z M 285.19495,233.5 c 0.0204,-1.65 0.2445,-2.20394 0.49804,-1.23097 0.25354,0.97297 0.23687,2.32297 -0.0371,3 -0.27393,0.67703 -0.48137,-0.11903 -0.46099,-1.76903 z M 165.65451,231.75 C 165.90945,231.3375 166.96492,231 168,231 c 1.03508,0 2.09055,0.3375 2.34549,0.75 0.25494,0.4125 -0.80053,0.75 -2.34549,0.75 -1.54496,0 -2.60043,-0.3375 -2.34549,-0.75 z m 169.54044,-4.25 c 0.0204,-1.65 0.2445,-2.20394 0.49804,-1.23097 0.25354,0.97297 0.23687,2.32297 -0.0371,3 -0.27393,0.67703 -0.48137,-0.11903 -0.46099,-1.76903 z m 57.08522,1.76373 c 2.6291,-0.20668 6.6791,-0.20418 9,0.006 2.32091,0.20972 0.16983,0.37882 -4.78017,0.37577 -4.95,-0.003 -6.84892,-0.17464 -4.21983,-0.38131 z M 359.25,228.26101 c 3.1625,-0.19845 8.3375,-0.19845 11.5,0 3.1625,0.19845 0.575,0.36082 -5.75,0.36082 -6.325,0 -8.9125,-0.16237 -5.75,-0.36082 z m -90.5,-3.96674 c 1.2375,-0.23836 3.2625,-0.23836 4.5,0 1.2375,0.23835 0.225,0.43337 -2.25,0.43337 -2.475,0 -3.4875,-0.19502 -2.25,-0.43337 z M 345.232,222 c 0,-1.925 0.2058,-2.7125 0.45733,-1.75 0.25152,0.9625 0.25152,2.5375 0,3.5 -0.25153,0.9625 -0.45733,0.175 -0.45733,-1.75 z m 41.84695,-0.58333 c 0.048,-1.16495 0.28494,-1.4019 0.60416,-0.60417 0.28887,0.72187 0.25335,1.58437 -0.0789,1.91667 -0.33229,0.33229 -0.56864,-0.25834 -0.52522,-1.3125 z m 18,0 c 0.048,-1.16495 0.28494,-1.4019 0.60416,-0.60417 0.28887,0.72187 0.25335,1.58437 -0.0789,1.91667 -0.33229,0.33229 -0.56864,-0.25834 -0.52522,-1.3125 z m -144.28976,-1.15808 c 3.45905,-0.19583 8.85905,-0.19422 12,0.004 3.14094,0.19781 0.31081,0.35803 -6.28919,0.35606 -6.6,-0.002 -9.16987,-0.16382 -5.71081,-0.35965 z m 192.46081,-0.003 c 4.8125,-0.18331 12.6875,-0.18331 17.5,0 4.8125,0.18332 0.875,0.3333 -8.75,0.3333 -9.625,0 -13.5625,-0.14998 -8.75,-0.3333 z M 79.175949,209.25044 c 20.721771,-0.15089 54.921771,-0.15096 76.000001,-1.5e-4 21.07823,0.1508 4.12405,0.27426 -37.67595,0.27434 -41.8,8e-5 -59.045823,-0.1233 -38.324051,-0.27419 z"
         id="path3830" />
      <path
         style="fill:#ec681b;fill-opacity:1"
         d="m 329.25,300.31067 c 0.9625,-0.25152 2.5375,-0.25152 3.5,0 0.9625,0.25153 0.175,0.45733 -1.75,0.45733 -1.925,0 -2.7125,-0.2058 -1.75,-0.45733 z m 55,-0.0269 c 1.5125,-0.22913 3.9875,-0.22913 5.5,0 1.5125,0.22912 0.275,0.41659 -2.75,0.41659 -3.025,0 -4.2625,-0.18747 -2.75,-0.41659 z M 225.37817,289 c 0,-6.325 0.16237,-8.9125 0.36082,-5.75 0.19845,3.1625 0.19845,8.3375 0,11.5 -0.19845,3.1625 -0.36082,0.575 -0.36082,-5.75 z m 154.98706,0.5 c 0.003,-5.5 0.17053,-7.62242 0.37317,-4.71648 0.20265,2.90594 0.20052,7.40594 -0.005,10 -0.20525,2.59406 -0.37104,0.21648 -0.36844,-5.28352 z m 77.82972,7 c 0.0204,-1.65 0.2445,-2.20394 0.49804,-1.23097 0.25354,0.97297 0.23687,2.32297 -0.0371,3 -0.27393,0.67703 -0.48137,-0.11903 -0.46099,-1.76903 z M 306.15789,294 c 0,-1.375 0.22698,-1.9375 0.50439,-1.25 0.27741,0.6875 0.27741,1.8125 0,2.5 -0.27741,0.6875 -0.50439,0.125 -0.50439,-1.25 z M 64.232003,290 c 0,-1.925 0.205795,-2.7125 0.457323,-1.75 0.251527,0.9625 0.251527,2.5375 0,3.5 -0.251528,0.9625 -0.457323,0.175 -0.457323,-1.75 z m 138.223377,1.74431 c -0.26502,-0.69063 -0.363,-17.00313 -0.21774,-36.25 l 0.26412,-34.99431 0.49912,36.25042 c 0.27452,19.93772 0.3725,36.25022 0.21774,36.25 -0.15477,-2.3e-4 -0.49822,-0.56548 -0.76324,-1.25611 z M 127.232,289 c 0,-1.925 0.2058,-2.7125 0.45733,-1.75 0.25152,0.9625 0.25152,2.5375 0,3.5 -0.25153,0.9625 -0.45733,0.175 -0.45733,-1.75 z m 17.84695,1.41667 c 0.048,-1.16495 0.28494,-1.4019 0.60416,-0.60417 0.28887,0.72187 0.25335,1.58438 -0.0789,1.91667 -0.3323,0.33229 -0.56864,-0.25834 -0.52522,-1.3125 z m 19.10438,0.36666 C 163.5325,290.1325 163,289.20786 163,288.72857 c 0,-0.47928 0.72857,-0.14286 1.61905,0.74762 0.89047,0.89048 1.42297,1.81512 1.18333,2.05476 -0.23964,0.23965 -0.96821,-0.0968 -1.61905,-0.74762 z M 359.87244,288.25 c -1.24387,-1.58606 -1.2085,-1.62143 0.37756,-0.37756 1.66575,1.30637 2.19548,2.12756 1.37244,2.12756 -0.20765,0 -0.99515,-0.7875 -1.75,-1.75 z M 108.25707,287.23739 C 108.34977,286.00683 108.77985,285 109.2128,285 c 1.0435,0 0.97217,1.159 -0.18385,2.98739 -0.73909,1.16897 -0.90434,1.0084 -0.77188,-0.75 z M 151.5,288.28693 c -3.26425,-0.78515 -3.81744,-1.99309 -1.14658,-2.50366 1.83028,-0.34988 2.62194,0.0145 2.97642,1.37003 0.26561,1.01569 0.41255,1.7945 0.32654,1.7307 -0.086,-0.0638 -1.05638,-0.33248 -2.15638,-0.59707 z M 267.87244,287.25 c -1.24387,-1.58606 -1.2085,-1.62143 0.37756,-0.37756 1.66575,1.30637 2.19548,2.12756 1.37244,2.12756 -0.20765,0 -0.99515,-0.7875 -1.75,-1.75 z M 247.15789,286 c 0,-1.375 0.22698,-1.9375 0.50439,-1.25 0.27741,0.6875 0.27741,1.8125 0,2.5 -0.27741,0.6875 -0.50439,0.125 -0.50439,-1.25 z M 87,286 c -1.281897,-0.82843 -1.245547,-0.9716 0.25,-0.98469 C 88.2125,285.00689 89,285.45 89,286 c 0,1.21961 -0.112787,1.21961 -2,0 z m 219,-2.28764 c 0,-1.29999 -1.33665,-1.69025 -6.75,-1.97081 l -6.75,-0.34983 6.78138,-0.19586 c 5.31556,-0.15352 6.90939,0.13769 7.37354,1.34727 0.32569,0.84872 0.31156,1.82372 -0.0314,2.16666 C 306.28059,285.05274 306,284.60389 306,283.71236 Z M 105,283 c 0.825,-0.53316 1.95,-0.96937 2.5,-0.96937 0.55,0 0.325,0.43621 -0.5,0.96937 -0.825,0.53316 -1.95,0.96937 -2.5,0.96937 -0.55,0 -0.325,-0.43621 0.5,-0.96937 z m -35,-1 -3.5,-0.73672 3.75,-0.13164 C 72.3125,281.05924 74,281.45 74,282 c 0,0.55 -0.1125,0.94076 -0.25,0.86836 C 73.6125,282.79596 71.925,282.40519 70,282 Z m 226.76791,-4.72473 c 1.79735,-0.22256 4.49735,-0.21797 6,0.0102 1.50265,0.22818 0.0321,0.41027 -3.26791,0.40466 -3.3,-0.006 -4.52944,-0.1923 -2.73209,-0.41486 z M 428.75,261.29427 c 1.2375,-0.23836 3.2625,-0.23836 4.5,0 1.2375,0.23835 0.225,0.43337 -2.25,0.43337 -2.475,0 -3.4875,-0.19502 -2.25,-0.43337 z m -137.98209,-1.019 c 1.79735,-0.22256 4.49735,-0.21797 6,0.0102 1.50265,0.22818 0.0321,0.41027 -3.26791,0.40466 -3.3,-0.006 -4.52944,-0.1923 -2.73209,-0.41486 z m 47.6653,0.009 c 4.86888,-0.34014 5.48897,-0.64028 5.87682,-2.84457 0.38173,-2.16951 0.41902,-2.13386 0.31178,0.29806 -0.11783,2.67223 -0.30961,2.76505 -5.87682,2.84457 l -5.755,0.0822 5.44322,-0.38027 z M 473.37817,247 c 0,-6.325 0.16237,-8.9125 0.36082,-5.75 0.19845,3.1625 0.19845,8.3375 0,11.5 -0.19845,3.1625 -0.36082,0.575 -0.36082,-5.75 z M 95.25,256.25845 c 3.7125,-0.19241 9.7875,-0.19241 13.5,0 3.7125,0.19241 0.675,0.34983 -6.75,0.34983 -7.425,0 -10.4625,-0.15742 -6.75,-0.34983 z m 60,0.0522 c 0.9625,-0.25152 2.5375,-0.25152 3.5,0 0.9625,0.25153 0.175,0.45733 -1.75,0.45733 -1.925,0 -2.7125,-0.2058 -1.75,-0.45733 z m 22,0 c 0.9625,-0.25152 2.5375,-0.25152 3.5,0 0.9625,0.25153 0.175,0.45733 -1.75,0.45733 -1.925,0 -2.7125,-0.2058 -1.75,-0.45733 z M 112.35496,244.5 c -0.003,-4.95 0.16605,-7.10108 0.37577,-4.78017 0.20972,2.3209 0.21222,6.3709 0.006,9 -0.20667,2.62909 -0.37827,0.73017 -0.38131,-4.21983 z m 108.03457,6.07273 c -0.30123,-0.785 -0.34839,-2.4725 -0.10479,-3.75 0.34044,-1.78539 0.4744,-1.578 0.57908,0.89649 l 0.13618,3.21922 12.25,0.31456 12.25,0.31456 -12.28138,0.21622 c -9.86117,0.17361 -12.38932,-0.065 -12.82909,-1.21105 z m 40.90206,0.68477 c 3.73537,-0.19293 9.58537,-0.19149 13,0.003 3.41462,0.19468 0.35841,0.35253 -6.79159,0.35078 -7.15,-0.002 -9.94379,-0.16103 -6.20841,-0.35396 z M 64.286014,243.5 c 0.0075,-2.75 0.201713,-3.75631 0.431567,-2.23625 0.229855,1.52006 0.223712,3.77006 -0.01365,5 C 64.466569,247.49369 64.278507,246.25 64.286014,243.5 Z M 107.75,246.33772 c 0.6875,-0.27741 1.8125,-0.27741 2.5,0 0.6875,0.27741 0.125,0.50439 -1.25,0.50439 -1.375,0 -1.9375,-0.22698 -1.25,-0.50439 z m 245.63404,-0.77931 c -1.16407,-3.03351 0.0626,-5.05624 3.12415,-5.15164 2.8357,-0.0884 2.84832,-0.072 0.24181,0.31336 -2.1133,0.31245 -2.75,0.95607 -2.75,2.77987 0,1.92815 0.60957,2.44893 3.25,2.7766 l 3.25,0.40333 -3.28138,0.16003 c -2.05268,0.10011 -3.48853,-0.37976 -3.83458,-1.28155 z m 16.36596,0.73586 c 1.2375,-0.23836 3.2625,-0.23836 4.5,0 1.2375,0.23835 0.225,0.43337 -2.25,0.43337 -2.475,0 -3.4875,-0.19502 -2.25,-0.43337 z m 38.01166,-4.00153 c 1.24391,-0.23919 3.04391,-0.23011 4,0.0202 0.95609,0.25029 -0.0617,0.446 -2.26166,0.4349 -2.2,-0.0111 -2.98225,-0.21589 -1.73834,-0.45508 z M 420,242.17319 c 0,-0.45474 1.35,-0.62867 3,-0.3865 1.65,0.24217 3,0.61423 3,0.82681 0,0.21257 -1.35,0.3865 -3,0.3865 -1.65,0 -3,-0.37206 -3,-0.82681 z m -184.25,-1.87892 c 1.2375,-0.23836 3.2625,-0.23836 4.5,0 1.2375,0.23835 0.225,0.43337 -2.25,0.43337 -2.475,0 -3.4875,-0.19502 -2.25,-0.43337 z m 134,0 c 1.2375,-0.23836 3.2625,-0.23836 4.5,0 1.2375,0.23835 0.225,0.43337 -2.25,0.43337 -2.475,0 -3.4875,-0.19502 -2.25,-0.43337 z m -59.5,-4.03326 c 3.1625,-0.19845 8.3375,-0.19845 11.5,0 3.1625,0.19845 0.575,0.36082 -5.75,0.36082 -6.325,0 -8.9125,-0.16237 -5.75,-0.36082 z M 353.19495,231.5 c 0.0204,-1.65 0.2445,-2.20394 0.49804,-1.23097 0.25354,0.97297 0.23687,2.32297 -0.0371,3 -0.27393,0.67703 -0.48137,-0.11903 -0.46099,-1.76903 z m 23,0 c 0.0204,-1.65 0.2445,-2.20394 0.49804,-1.23097 0.25354,0.97297 0.23687,2.32297 -0.0371,3 -0.27393,0.67703 -0.48137,-0.11903 -0.46099,-1.76903 z m 28.96294,0.5 c 0,-1.375 0.22698,-1.9375 0.50439,-1.25 0.27741,0.6875 0.27741,1.8125 0,2.5 -0.27741,0.6875 -0.50439,0.125 -0.50439,-1.25 z M 66.269032,231.30701 c 0.972967,-0.25354 2.322967,-0.23687 3,0.0371 0.677032,0.27393 -0.119032,0.48137 -1.769032,0.46099 -1.65,-0.0204 -2.203936,-0.2445 -1.230968,-0.49804 z M 304.19495,227.5 c 0.0204,-1.65 0.2445,-2.20394 0.49804,-1.23097 0.25354,0.97297 0.23687,2.32297 -0.0371,3 -0.27393,0.67703 -0.48137,-0.11903 -0.46099,-1.76903 z m 72,-7 c 0.0204,-1.65 0.2445,-2.20394 0.49804,-1.23097 0.25354,0.97297 0.23687,2.32297 -0.0371,3 -0.27393,0.67703 -0.48137,-0.11903 -0.46099,-1.76903 z m -154,-3 c 0.0204,-1.65 0.2445,-2.20394 0.49804,-1.23097 0.25354,0.97297 0.23687,2.32297 -0.0371,3 -0.27393,0.67703 -0.48137,-0.11903 -0.46099,-1.76903 z m -23.64216,-3.41459 c -0.32198,-0.52097 -0.15917,-1.21065 0.3618,-1.53262 0.52097,-0.32198 1.21065,-0.15917 1.53262,0.3618 0.32198,0.52097 0.15917,1.21065 -0.3618,1.53262 -0.52097,0.32198 -1.21065,0.15917 -1.53262,-0.3618 z m 191.7388,-0.82791 c 3.73537,-0.19293 9.58537,-0.19149 13,0.003 3.41462,0.19468 0.35841,0.35253 -6.79159,0.35078 -7.15,-0.002 -9.94379,-0.16103 -6.20841,-0.35396 z m 62.95841,-0.002 c 4.8125,-0.18331 12.6875,-0.18331 17.5,0 4.8125,0.18332 0.875,0.3333 -8.75,0.3333 -9.625,0 -13.5625,-0.14998 -8.75,-0.3333 z"
         id="path3828" />
      <path
         style="fill:#ec681b;fill-opacity:1"
         d="m 35.844203,299.74503 c -1.460689,-1.23477 -3.148189,-3.22795 -3.75,-4.42929 C 31.36082,293.85176 31,280.89245 31,256.01608 31,224.7964 31.240961,218.43471 32.516927,215.96727 35.726452,209.76073 32.306233,210 117.81548,210 h 77.9148 l 2.75604,2.1679 C 203.8009,216.34835 204,217.93115 204,256 c 0,38.06885 -0.1991,39.65165 -5.51368,43.8321 L 195.73028,302 117.11514,301.995 38.5,301.99 35.844203,299.74496 Z m 161.851327,-0.70094 c 5.18622,-3.16224 5.46961,-5.65555 5.11977,-45.04409 -0.3446,-38.79918 -0.39347,-39.11988 -6.37638,-41.84587 -3.26286,-1.48667 -153.98448,-1.65761 -157.873361,-0.17906 -1.410552,0.5363 -3.463164,2.4488 -4.561361,4.25 -1.899343,3.11521 -1.996722,5.05501 -1.996722,39.77493 0,34.75558 0.09571,36.65698 2.002582,39.78456 1.10142,1.80651 3.012238,3.69049 4.246262,4.18662 1.261005,0.50697 35.967719,0.92817 79.24368,0.9617 74.6168,0.0578 77.0989,-6.6e-4 80.19553,-1.88879 z M 69.99758,291.5 c -0.128932,-1.1 -0.181133,-2.3375 -0.116001,-2.75 0.06513,-0.4125 -0.894079,-0.75689 -2.131579,-0.76531 -3.708965,-0.0252 -4.584908,-1.12979 -3.315561,-4.18087 0.766249,-1.8418 1.535481,-2.44044 2.427476,-1.88916 1.029741,0.63641 0.970958,0.93549 -0.278069,1.41479 -2.734221,1.04922 -1.882678,3.67819 1.166154,3.60026 2.436844,-0.0623 2.52225,-0.16815 0.75,-0.92971 -1.613712,-0.69344 -1.289872,-0.873 1.676676,-0.92971 2.622547,-0.0501 3.807793,-0.57203 4.133998,-1.82029 0.428418,-1.63939 0.464655,-1.63735 0.573325,0.0322 0.06407,0.98439 -0.891245,2.18709 -2.133999,2.68662 -2.249167,0.90405 -2.249075,0.90445 0.25,1.08378 1.747327,0.12537 1.973129,0.31707 0.75,0.63671 -0.9625,0.25152 -1.75,0.71221 -1.75,1.02375 0,0.31154 0.7875,1.20337 1.75,1.98184 1.589896,1.28592 1.550796,1.31921 -0.427384,0.36393 -1.774853,-0.8571 -2.261799,-0.72865 -2.633999,0.69483 -0.391384,1.49685 -0.490103,1.46061 -0.691037,-0.25368 z m 9.118421,-3.75 c -0.08773,-4.34871 0.229245,-5.75 1.300666,-5.75 0.779166,0 1.613422,0.5625 1.8539,1.25 0.320143,0.91525 0.968494,0.77918 2.42102,-0.5081 1.898712,-1.6827 2.061719,-1.67197 3.801087,0.25 1.873172,2.06984 0.780485,2.88126 -1.205542,0.89523 -0.612077,-0.61207 -1.65012,-0.78082 -2.306762,-0.375 -0.901882,0.5574 -0.862046,0.96791 0.162867,1.67838 0.945224,0.65523 0.674284,0.74853 -0.893237,0.30761 -1.496549,-0.42096 -2.28338,-0.19175 -2.34968,0.68449 C 81.845496,286.90718 81.440352,286.375 81,285 c -0.75858,-2.36867 -0.805876,-2.32927 -0.90032,0.75 -0.106154,3.46109 0.684412,4.02123 2.822727,2 1.091866,-1.03208 1.117986,-0.85287 0.149827,1.02801 -0.64492,1.2529 -1.565946,2.03489 -2.046725,1.73776 -0.48078,-0.29714 -1.081001,0.25275 -1.333826,1.22199 -0.252824,0.96923 -0.511881,-0.82526 -0.575682,-3.98776 z m 5.677503,4.53857 c 1.800375,-0.34467 2.166377,-0.90667 1.70225,-2.61382 -0.572593,-2.10612 -0.552994,-2.11163 0.621034,-0.17475 0.666757,1.1 1.700744,2.33061 2.297749,2.73469 0.597005,0.40408 -0.714537,0.68029 -2.914537,0.61382 -2.361193,-0.0713 -3.060347,-0.30076 -1.706496,-0.55994 z M 105,289.91512 c 0,-1.51335 -0.26055,-3.43052 -0.57899,-4.26037 -0.44719,-1.16536 -0.0547,-1.37172 1.72421,-0.90652 1.26676,0.33126 1.7523,0.78593 1.07899,1.01037 -0.67332,0.22444 -1.22421,1.74712 -1.22421,3.38375 0,1.71331 0.42087,2.71557 0.99208,2.36254 0.54564,-0.33722 1.70569,-0.21378 2.57788,0.27432 1.19341,0.66787 0.82422,0.88746 -1.49208,0.88746 -2.69144,0 -3.07788,-0.34547 -3.07788,-2.75155 z m 6.65758,0.0849 -2.67301,-3 h 2.50772 c 3.42224,0 3.19688,-1.97035 -0.24229,-2.11831 l -2.75,-0.11832 3,-0.72154 3,-0.72155 -3.5,-0.54066 -3.5,-0.54066 3.5,0.13052 c 3.241,0.12086 3.5074,0.37352 3.6,3.41421 0.055,1.80603 -0.30435,3.53359 -0.79856,3.83903 -0.49891,0.30834 -0.37774,1.18289 0.27245,1.96631 2.25001,2.7111 0.23363,1.38508 -2.41631,-1.58903 z M 113.5,289 c 0.33992,-0.55 0.14148,-1 -0.44098,-1 -0.58246,0 -1.05902,0.45 -1.05902,1 0,0.55 0.19844,1 0.44098,1 0.24254,0 0.7191,-0.45 1.05902,-1 z m 6.29011,1.02326 c -0.24029,-1.63721 -0.0733,-3.54971 0.37118,-4.25 0.48471,-0.76373 0.81421,0.42749 0.8234,2.97674 0.0178,4.9358 -0.56575,5.55776 -1.19458,1.27326 z m 4.95989,2.31446 c 0.6875,-0.27741 1.8125,-0.27741 2.5,0 0.6875,0.27741 0.125,0.50439 -1.25,0.50439 -1.375,0 -1.9375,-0.22698 -1.25,-0.50439 z m 21.5,-0.0683 c 1.5125,-0.22127 2.75,-1.02086 2.75,-1.77687 0,-1.95668 -1.97252,-2.92007 -3.28713,-1.60546 -0.61208,0.61208 -1.58537,1.0979 -2.16287,1.0796 -0.5775,-0.0183 0.05,-0.94882 1.39454,-2.06782 l 2.44454,-2.03455 1.66825,2.21164 c 1.06313,1.40943 2.13678,1.92207 2.95996,1.41331 0.88999,-0.55004 1.04832,-0.40449 0.5091,0.46798 -0.43044,0.69648 -0.31824,1.55351 0.24934,1.90451 0.56757,0.35101 -1.28728,0.67685 -4.12189,0.72408 -2.83461,0.0472 -3.91634,-0.0951 -2.40384,-0.31642 z M 167,292 c -0.90129,-0.58246 -1.02463,-0.97549 -0.30902,-0.98469 0.65504,-0.008 1.4691,0.43469 1.80902,0.98469 0.7673,1.24153 0.42112,1.24153 -1.5,0 z m -7.96959,-2.75 c -0.0167,-1.2375 0.34459,-2.25 0.80292,-2.25 1.22601,0 1.04449,-3.36142 -0.23458,-4.34433 -0.68714,-0.52803 -0.48882,-0.65096 0.52939,-0.32815 0.89548,0.28391 2.02048,0.18816 2.5,-0.21276 0.47953,-0.40092 2.32226,-0.47825 4.09497,-0.17185 2.56736,0.44375 3.02825,0.86227 2.26531,2.05709 -0.63701,0.99763 -0.96292,1.08136 -0.97311,0.25 -0.0212,-1.72986 -4.50199,-1.57344 -5.98112,0.2088 -0.99749,1.20191 -0.75531,1.57309 1.37532,2.10785 1.42231,0.35697 3.2854,0.38067 4.14019,0.0527 0.89169,-0.34217 1.29375,-0.17501 0.94322,0.39215 -0.33602,0.5437 -2.13704,0.98855 -4.00225,0.98855 -2.17484,0 -3.75691,0.62772 -4.41057,1.75 -0.91029,1.56287 -1.02253,1.5094 -1.04969,-0.5 z M 123.75,285.29427 c 1.2375,-0.23836 3.2625,-0.23836 4.5,0 1.2375,0.23835 0.225,0.43337 -2.25,0.43337 -2.475,0 -3.4875,-0.19502 -2.25,-0.43337 z m 28.59508,-0.8374 c -0.32569,-0.84872 -0.36872,-1.76657 -0.0956,-2.03966 0.27309,-0.2731 0.73656,0.42131 1.02992,1.54313 0.62315,2.38293 -0.0692,2.75089 -0.9343,0.49653 z m 11.38825,0.41904 c 0.67834,-0.68342 1.48524,-0.99067 1.79313,-0.68278 0.30789,0.30789 -0.24711,0.86705 -1.23333,1.24258 -1.4252,0.54268 -1.54006,0.42782 -0.5598,-0.5598 z M 143.75,284.33772 c 0.6875,-0.27741 1.8125,-0.27741 2.5,0 0.6875,0.27741 0.125,0.50439 -1.25,0.50439 -1.375,0 -1.9375,-0.22698 -1.25,-0.50439 z m -19.5,-2.02705 c 0.9625,-0.25152 2.5375,-0.25152 3.5,0 0.9625,0.25153 0.175,0.45733 -1.75,0.45733 -1.925,0 -2.7125,-0.2058 -1.75,-0.45733 z M 38.454545,272.54545 36,270.09091 v -24.9106 c 0,-23.68718 0.101789,-25.04 2.07258,-27.54545 L 40.14516,215 h 76.70491 c 67.80547,0 76.96278,0.18061 78.92742,1.5567 2.2014,1.54192 2.22251,1.80787 2.22251,28 0,25.10997 -0.10084,26.54414 -2,28.4433 -1.96516,1.96516 -3.33333,2 -78.54545,2 H 40.909091 Z M 70,254.5 C 70,252.11615 70.273799,252 75.893011,252 82.681114,252 83,251.61861 83,243.5 83,235.38139 82.681114,235 75.893011,235 70.666667,235 70,234.77374 70,233 c 0,-1.46667 -0.666667,-2 -2.5,-2 -1.812965,0 -2.5,0.53651 -2.5,1.95228 0,1.69638 -0.819252,1.99131 -6.25,2.25 L 52.5,235.5 v 8 8 l 6.25,0.29772 c 5.886633,0.28041 6.25,0.44029 6.25,2.75 0,1.9491 0.512972,2.45228 2.5,2.45228 2,0 2.5,-0.5 2.5,-2.5 z m -13,-11 c 0,-4.47619 0.01852,-4.5 3.5,-4.5 3.481481,0 3.5,0.0238 3.5,4.5 0,4.47619 -0.01852,4.5 -3.5,4.5 -3.481481,0 -3.5,-0.0238 -3.5,-4.5 z m 13,0 V 239 h 4 4 v 4.5 4.5 h -4 -4 z m 45.8,12.3 c 0.7837,-0.7837 1.2,-4.90956 1.2,-11.89301 0,-8.82814 -0.27587,-10.79887 -1.58179,-11.3 -2.05905,-0.79013 -24.77737,-0.79013 -26.836423,0 C 87.275866,233.10812 87,235.07885 87,243.90699 c 0,6.98345 0.416297,11.10931 1.2,11.89301 0.806349,0.80635 5.333333,1.2 13.8,1.2 8.46667,0 12.99365,-0.39365 13.8,-1.2 z M 91,244.5 V 236 h 10.5 10.5 v 8.5 8.5 H 101.5 91 Z m 20,4 c 0,-1.83333 -0.53333,-2.5 -2,-2.5 -1.1,0 -2,0.45 -2,1 0,0.55 -0.7125,1 -1.58333,1 -2.63772,0 -0.95757,-2.4769 1.91045,-2.81642 3.7906,-0.44874 3.37003,-2.97035 -0.57712,-3.46018 -3.19982,-0.3971 -3.1921,-0.4058 0.5,-0.56336 3.02999,-0.12931 3.75,-0.54405 3.75,-2.16004 0,-1.85185 -0.66667,-2 -9,-2 -8.333333,0 -9,0.14815 -9,2 0,1.61599 0.720012,2.03073 3.75,2.16004 3.6921,0.15756 3.69982,0.16626 0.5,0.56336 -3.947148,0.48983 -4.367723,3.01144 -0.577119,3.46018 C 100.8887,245.68266 100.81502,248 96.583333,248 94.064815,248 93,248.44574 93,249.5 c 0,1.22222 1.666667,1.5 9,1.5 8.93333,0 9,-0.0185 9,-2.5 z m 27,6 c 0,-2.41026 0.23333,-2.5 6.5,-2.5 5.83333,0 6.5,-0.20513 6.5,-2 0,-1.79487 -0.66667,-2 -6.5,-2 H 138 v -5.5 -5.5 h 6 c 5.33333,0 6,-0.22222 6,-2 0,-1.90805 -0.66667,-2 -14.5,-2 -13.83333,0 -14.5,0.0919 -14.5,2 0,1.77778 0.66667,2 6,2 h 6 v 5.5 5.5 h -6.5 c -5.83333,0 -6.5,0.20513 -6.5,2 0,1.79487 0.66667,2 6.5,2 6.26667,0 6.5,0.0897 6.5,2.5 0,2 0.5,2.5 2.5,2.5 2,0 2.5,-0.5 2.5,-2.5 z m 25.22087,1.13404 c 3.91988,-1.17971 5.34748,-1.15525 10.47024,0.1794 6.1902,1.61275 9.30889,1.2264 9.30889,-1.15322 0,-0.93555 -1.7481,-1.63792 -5.25,-2.10941 l -5.25,-0.70685 2.75,-1.45392 c 1.57595,-0.8332 2.75,-2.29413 2.75,-3.42198 0,-1.40692 0.67956,-1.96806 2.38337,-1.96806 1.54236,0 2.56792,-0.70573 2.90638,-2 0.43441,-1.66121 0.0307,-2 -2.38337,-2 C 178.9896,241 178,240.48926 178,239.5 c 0,-0.84106 -0.89238,-1.5 -2.03138,-1.5 -1.11727,0 -2.29041,0.675 -2.60699,1.5 -0.40313,1.05053 -2.04177,1.5 -5.46862,1.5 C 164.21033,241 163,240.62896 163,239.5 c 0,-0.84106 -0.89238,-1.5 -2.03138,-1.5 -1.11727,0 -2.29041,0.675 -2.60699,1.5 -0.31659,0.825 -1.65246,1.5 -2.96862,1.5 -1.72634,0 -2.39301,0.55718 -2.39301,2 0,1.44249 0.66667,2 2.39159,2 1.6727,0 2.56794,0.70263 2.97827,2.33749 0.32267,1.28561 1.60895,2.81341 2.8584,3.3951 2.0284,0.94433 1.70939,1.13621 -2.97826,1.79135 -3.02147,0.42227 -5.25,1.24501 -5.25,1.93822 0,2.9217 3.19099,3.28756 10.22087,1.17188 z M 164.75,247.9199 C 161.64336,246.11045 162.87934,245 168,245 c 5.18751,0 6.40519,1.1776 3.06574,2.96482 -2.39622,1.28241 -4.05713,1.2706 -6.31574,-0.0449 z M 132,246.44812 c 0,-0.30354 -1.0125,-2.32507 -2.25,-4.4923 -1.56789,-2.74584 -2.93211,-3.94275 -4.5,-3.94812 -2.69375,-0.009 -2.77904,0.81504 -0.56479,5.45837 1.33957,2.80912 2.26253,3.53393 4.5,3.53393 1.54814,0 2.81479,-0.24835 2.81479,-0.55188 z m 13.97968,-3.40828 C 148.51908,238.0622 148.51341,238 145.52032,238 c -1.88202,0 -2.96661,0.95448 -4.5,3.96016 -2.5394,4.97764 -2.53373,5.03984 0.45936,5.03984 1.88202,0 2.96661,-0.95448 4.5,-3.96016 z M 157,238 c 0,-0.60606 4.33333,-1 11,-1 6.66667,0 11,0.39394 11,1 0,0.55 0.9,1 2,1 1.44282,0 2,-0.66667 2,-2.39301 C 183,233.82994 181.36741,233 175.90464,233 c -2.16248,0 -4.82567,-0.55825 -5.91821,-1.24055 -1.58107,-0.98739 -2.39179,-0.98739 -3.97286,0 C 164.92103,232.44175 162.25784,233 160.09536,233 154.63259,233 153,233.82994 153,236.60699 c 0,1.72634 0.55718,2.39301 2,2.39301 1.1,0 2,-0.45 2,-1 z m 136.2588,62.29542 C 289.52973,299.57627 288,296.22582 288,288.77749 288,279.35806 289.4491,278 299.5,278 c 6.16667,0 7.85556,0.35556 9.5,2 1.1,1.1 2,2.675 2,3.5 0,2.27507 -3.68676,1.80585 -4.30218,-0.54754 -0.48388,-1.85037 -1.19327,-2.01889 -7.36663,-1.75 L 292.5,281.5 l -0.29287,7.79467 -0.29287,7.79468 7.29287,-0.29468 C 306.24094,296.51047 306.5,296.4112 306.5,294 c 0,-2.16705 -0.49943,-2.54133 -3.75,-2.81037 -2.45306,-0.20302 -3.75,-0.80826 -3.75,-1.75 C 299,288.34675 300.44515,288 305,288 h 6 v 3.56574 c 0,1.96116 -0.4405,4.38883 -0.97889,5.39482 -1.75271,3.27497 -9.29353,4.77521 -16.76231,3.33486 z M 403.31113,298.25 c 0.30862,-1.5125 2.4004,-6.71847 4.64841,-11.56882 3.02385,-6.52431 4.52088,-8.73531 5.75377,-8.49787 2.35599,0.45372 11.06199,20.44139 9.5585,21.94488 -0.80215,0.80215 -1.53949,0.25486 -2.71239,-2.01329 -1.52573,-2.95042 -1.92108,-3.1149 -7.48728,-3.1149 -5.63037,0 -5.92029,0.12565 -6.9223,3 -1.33989,3.84363 -3.61282,4.0438 -2.83871,0.25 z M 417,291.28343 c 0,-0.39411 -0.74971,-2.67966 -1.66603,-5.07901 -1.80122,-4.71643 -2.00954,-4.61848 -4.90235,2.30501 L 408.97316,292 h 4.01342 C 415.19396,292 417,291.67754 417,291.28343 Z m 12.46216,8.47855 c -0.2964,-0.77239 -0.40913,-5.86709 -0.25053,-11.32157 0.22932,-7.88662 0.59551,-9.96727 1.78837,-10.16159 0.86015,-0.14012 4.05941,3.11184 7.5,7.62355 l 6,7.8679 0.5,-7.63513 c 0.38623,-5.8979 0.8413,-7.63514 2,-7.63514 1.24173,0 1.5,1.87963 1.5,10.91667 0,7.32734 -0.37747,11.04249 -1.14804,11.29934 -0.63142,0.21048 -4.00642,-3.31704 -7.5,-7.83892 L 433.5,284.65548 433,292.49882 c -0.31906,5.00496 -0.95217,7.99247 -1.74947,8.25542 -0.68721,0.22664 -1.49198,-0.21988 -1.78837,-0.99226 z m 25.99241,-0.0198 c -0.29222,-0.76151 -0.40154,-5.85253 -0.24294,-11.31338 0.23324,-8.03077 0.57512,-9.9288 1.78837,-9.9288 1.08157,0 1.63948,1.47733 2,5.29597 l 0.5,5.29597 5.46584,-5.54597 c 3.00621,-3.05028 6.04371,-5.54597 6.75,-5.54597 2.37467,0 1.31216,2.56677 -2.67359,6.45874 l -3.95774,3.86464 4.06037,4.84967 c 2.82025,3.36847 3.85026,5.38069 3.37241,6.58831 -0.57617,1.45609 -1.3237,1.00735 -4.59992,-2.76136 -2.15158,-2.475 -3.91318,-4.8375 -3.91467,-5.25 -10e-4,-0.4125 -0.60796,-0.75 -1.34771,-0.75 -2.12404,0 -4.65499,3.4089 -4.65499,6.26972 0,2.9274 -1.72711,4.605 -2.54543,2.47248 z M 226,289 v -11 h 8.27749 C 244.83014,278 247,279.27914 247,285.5 c 0,5.86733 -2.33417,7.5 -10.72251,7.5 H 230 v 3.5 c 0,2.83333 -0.38095,3.5 -2,3.5 -1.87879,0 -2,-0.66667 -2,-11 z m 17,-3.5 V 281 h -6.5 -6.5 v 4.5 4.5 h 6.5 6.5 z m 8,3.5 v -11 h 2.5 2.5 v 11 11 h -2.5 -2.5 z m 10,0 c 0,-13.90751 0.69385,-14.07966 11.22694,-2.78536 l 7.72695,8.28536 0.0231,-8.25 c 0.0212,-7.57565 0.18654,-8.25 2.02306,-8.25 1.87879,0 2,0.66667 2,11 0,10.75608 -0.0501,11 -2.26064,11 -1.59207,0 -4.32769,-2.41413 -9.25,-8.16294 l -6.98936,-8.16293 -0.29044,8.16293 C 264.94835,299.17836 264.72188,300 262.95956,300 261.13224,300 261,299.25766 261,289 Z m 57,10.35258 c 0,-0.35608 2.3625,-5.30404 5.25,-10.99547 7.03069,-13.85791 7.63982,-13.83208 15.16061,0.64289 5.51628,10.61696 5.63302,11 3.35257,11 -1.96397,0 -3.02865,-1.36583 -6.30835,-8.09264 -2.17009,-4.45096 -4.27762,-8.29784 -4.6834,-8.54862 -0.40578,-0.25079 -2.64564,3.3909 -4.97746,8.09264 C 322.85092,297.38555 321.01078,300 319.77714,300 318.79971,300 318,299.70866 318,299.35258 Z M 347,289 c 0,-10.76278 0.0485,-10.9984 2.25,-10.92562 1.52514,0.0504 4.50513,2.68835 9.25,8.18822 l 7,8.11383 0.29044,-8.18822 c 0.26129,-7.3664 0.48712,-8.18821 2.25,-8.18821 1.82732,0 1.95956,0.74234 1.95956,11 0,10.75608 -0.0501,11 -2.26064,11 -1.59207,0 -4.32769,-2.41413 -9.25,-8.16294 l -6.98936,-8.16293 -0.29044,8.16293 C 350.94835,299.17836 350.72188,300 348.95956,300 347.13224,300 347,299.25766 347,289 Z m 34,0 v -11 h 6.5 c 5.16667,0 6.91026,0.41026 8.5,2 2.38638,2.38638 2.57822,5.27523 0.46669,7.02765 -1.36303,1.13121 -1.3075,1.51289 0.5,3.43689 2.52345,2.68609 2.60197,5.71085 0.20457,7.88047 -1.3438,1.21613 -3.73039,1.65499 -9,1.65499 H 381 Z m 13.81068,4.68234 c -0.2676,-1.87972 -1.03868,-2.22425 -5.56068,-2.4846 -5.23086,-0.30116 -5.25,-0.29135 -5.25,2.68964 0,2.73233 0.32533,3.02034 3.75,3.31984 4.99511,0.43683 7.4502,-0.78881 7.06068,-3.52488 z M 392.8,286.8 c 1.69411,-1.69411 1.48967,-4.47487 -0.38179,-5.19301 -0.86998,-0.33385 -3.11998,-0.60699 -5,-0.60699 -3.23986,0 -3.41821,0.18262 -3.41821,3.5 0,3.38596 0.12381,3.5 3.8,3.5 2.09,0 4.34,-0.54 5,-1.2 z M 245.80226,256.75 245.5,251.5 233.25,251.21922 221,250.93844 V 247.96922 245 H 233.5 246 V 232.5 220 H 234.5 223 v -3 -3 h 27.5 27.5 v 3 3 H 266.5 255 v 12.5 12.5 h 12.5 12.5 v 3 3 H 267.5 255 v 5.5 5.5 h -4.44774 -4.44774 z M 363.5,261.10748 c -1.65211,-0.65998 -2.08697,-1.99993 -2.5,-7.70322 L 360.5,246.5 357.25,246.18664 C 354.5843,245.92962 354,245.4466 354,243.5 c 0,-1.9466 0.5843,-2.42962 3.25,-2.68664 2.70808,-0.26111 3.30276,-0.77191 3.56642,-3.06336 0.29285,-2.54509 0.0507,-2.75 -3.25,-2.75 C 354.2704,235 354,234.77255 354,232 v -3 h 11 11 v 3 c 0,2.83333 -0.22222,3 -4,3 -3.77778,0 -4,0.16667 -4,3 0,2.88889 0.16667,3 4.5,3 4.13333,0 4.5,0.2037 4.5,2.5 0,2.2963 -0.36667,2.5 -4.5,2.5 H 368 v 5 5 h 3.56642 c 3.30069,0 3.54285,0.20491 3.25,2.75 -0.28876,2.5096 -0.70981,2.76777 -4.81642,2.95322 -2.475,0.11177 -5.4,-0.15632 -6.5,-0.59574 z m 18.55051,-1.05697 C 380.11942,258.11942 380,256.83142 380,237.93426 c 0,-11.91948 0.42026,-20.85101 1.03518,-22 C 381.98522,214.15911 383.2573,214 396.5,214 413.66605,214 413,213.47789 413,226.93426 413,239.58125 412.51926,240 398,240 h -11 v 7.93963 7.93964 l 3.75,0.31036 c 3.25057,0.26904 3.75,0.64332 3.75,2.81037 0,2.30759 -0.40017,2.52313 -5.19949,2.80051 -4.16643,0.2408 -5.6069,-0.1069 -7.25,-1.75 z M 405.81955,231.75 c -0.30159,-2.12355 -0.83941,-2.26616 -9.56955,-2.53753 L 387,228.92495 V 231.46247 234 h 9.56955 c 9.35199,0 9.56229,-0.0512 9.25,-2.25 z M 406,221.5 c 0,-2.49123 -0.0333,-2.5 -9.5,-2.5 -9.46667,0 -9.5,0.009 -9.5,2.5 0,2.49123 0.0333,2.5 9.5,2.5 9.46667,0 9.5,-0.009 9.5,-2.5 z m -0.5,39.79876 c -1.1,-0.28269 -2.562,-0.97024 -3.24888,-1.52788 C 401.04345,258.79042 392,244.40511 392,243.46453 392,243.20904 393.76968,243 395.93261,243 c 3.05436,0 4.07438,0.44665 4.56739,2 0.34913,1.1 1.05064,2 1.55891,2 0.50828,0 1.4862,-0.9 2.17316,-2 0.89791,-1.43777 2.33203,-2 5.1016,-2 h 3.85257 l -4.06193,4.85153 c -3.38195,4.03936 -3.8579,5.11707 -2.84312,6.43778 0.67035,0.87244 2.56881,1.72675 4.21881,1.89847 2.45008,0.25499 3,0.77049 3,2.81222 0,2.07636 -0.50837,2.5265 -3,2.65637 -1.65,0.086 -3.9,-0.0749 -5,-0.35761 z M 451,258.5 V 255 h 7 7 v -9.5 -9.5 h -11 -11 v -3.5 -3.5 h 19 19 v 3.5 c 0,3.41667 -0.0952,3.5 -4,3.5 h -4 v 11.96482 C 473,262.30974 473.28544,262 460.06574,262 H 451 Z m -24.21247,-6.75 -0.28753,-9.25 -2.75,-0.31642 c -1.5125,-0.17403 -2.75,-0.5272 -2.75,-0.7848 0,-0.25761 2.1375,-3.14904 4.75,-6.4254 4.45862,-5.59159 5.01071,-5.95751 9,-5.96519 2.3375,-0.005 4.25,0.25358 4.25,0.57351 0,0.31994 -1.575,2.50379 -3.5,4.853 -3.89391,4.752 -4.18619,5.5653 -2,5.5653 1.2381,0 1.5,1.83333 1.5,10.5 V 261 h -3.96247 -3.96248 z M 287,257 v -3 l 7.75,-0.0451 c 4.2625,-0.0248 9.1,-0.62764 10.75,-1.33963 l 3,-1.29453 -5.23836,-2.67132 c -4.67927,-2.38621 -5.359,-3.15042 -6.36871,-7.16037 L 295.76257,237 H 290.88129 286 v -3.5 -3.5 h 4.93045 c 4.35171,0 4.96796,-0.26411 5.25,-2.25 0.25668,-1.80733 1.05733,-2.31106 4.06955,-2.56037 3.43772,-0.28452 3.75,-0.0971 3.75,2.25 V 230 h 11.43045 c 11.09245,0 11.4399,-0.0665 11.75,-2.25 0.25668,-1.80733 1.05733,-2.31106 4.06955,-2.56037 3.41906,-0.28297 3.75,-0.089 3.75,2.19775 0,2.3206 0.39248,2.5307 5.25,2.81036 5.0995,0.2936 5.25,0.38826 5.25,3.30226 0,2.914 -0.1505,3.00866 -5.25,3.30226 -5.04179,0.29027 -5.25,0.41592 -5.25,3.16821 0,4.64964 -0.97087,5.98016 -6.37479,8.73629 l -5.12521,2.61398 3,1.29453 c 1.65,0.71199 6.2625,1.31482 10.25,1.33963 L 344,254 v 3 3 h -8.03013 c -6.37387,0 -9.28995,-0.53025 -14.13812,-2.57081 l -6.10798,-2.57082 -5.9278,2.57082 C 304.97841,259.5185 302.28853,260 295.43409,260 H 287 Z m 34.75,-11.46376 c 4.90002,-2.28129 5.25,-2.6828 5.25,-6.02299 V 235.9345 L 315.75,236.21725 304.5,236.5 v 2.99604 c 0,2.56451 0.72018,3.38935 5,5.72664 2.75,1.50183 5.45,2.73672 6,2.74419 0.55,0.007 3.3625,-1.08631 6.25,-2.43063 z M 229.51257,233.02496 C 227.58066,229.18869 226,225.81369 226,225.52496 226,225.23623 227.92632,225 230.28071,225 h 4.28072 l 3.7111,7.5 3.7111,7.5 h -4.47924 -4.47925 z M 259,239.47504 c 0,-0.28873 1.58066,-3.66373 3.51257,-7.5 L 266.02514,225 h 4.47925 4.47924 l -3.7111,7.5 -3.7111,7.5 h -4.28072 C 260.92632,240 259,239.76377 259,239.47504 Z M 421.15429,225.25 c 0.80535,-0.9625 3.392,-4.1125 5.74811,-7 3.84035,-4.70649 4.6883,-5.25 8.19072,-5.25 2.14878,0 3.90688,0.27369 3.90688,0.60821 0,0.33451 -2.28875,3.48451 -5.0861,7 -4.91832,6.18093 -5.23683,6.39179 -9.65499,6.39179 -4.24247,0 -4.46427,-0.12503 -3.10462,-1.75 z m -65.755,-5.5 c 3.3398,-5.93829 3.72108,-6.26555 7.6449,-6.56175 3.77526,-0.28498 4.07361,-0.13476 3.47541,1.75 -0.60214,1.89718 -0.24989,2.06175 4.41301,2.06175 4.96377,0 5.06739,0.0614 5.06739,3 v 3 h -7.39301 c -5.64908,0 -7.52879,0.35383 -7.96862,1.5 -0.3818,0.99495 -1.95246,1.5 -4.66489,1.5 h -4.0893 z M 286,222 c 0,-5.69943 2.67236,-7 14.38337,-7 9.54236,0 10.42573,-0.16199 10.90638,-2 0.41556,-1.58911 1.36401,-2 4.61663,-2 3.42695,0 4.09362,0.32571 4.09362,2 0,1.878 0.66667,2 10.92857,2 C 343.30262,215 345,215.79268 345,221.57143 345,224.71429 344.75,225 342,225 c -2.33333,0 -3,-0.44444 -3,-2 0,-1.94203 -0.66667,-2 -23,-2 -22.33333,0 -23,0.058 -23,2 0,1.61905 -0.66667,2 -3.5,2 -3.22222,0 -3.5,-0.2381 -3.5,-3 z m 159,-5 v -3 h 17 17 v 3 3 h -17 -17 z"
         id="path3826" />
      <path
         style="fill:#ec681b;fill-opacity:1"
         d="m 327.232,297 c 0,-1.925 0.2058,-2.7125 0.45733,-1.75 0.25152,0.9625 0.25152,2.5375 0,3.5 -0.25153,0.9625 -0.45733,0.175 -0.45733,-1.75 z"
         id="path3824" />
      <path
         style="fill:#ec681b;fill-opacity:1"
         d="m 328,297 c 0,-2.66667 0.33333,-3 3,-3 2.66667,0 3,0.33333 3,3 0,2.66667 -0.33333,3 -3,3 -2.66667,0 -3,-0.33333 -3,-3 z"
         id="path3822" />
    </g>
  </g>
</svg>
