<?xml version="1.0" encoding="UTF-8" standalone="no"?>
<!-- Created with Inkscape (http://www.inkscape.org/) -->

<svg
   version="1.1"
   id="svg1475"
   width="450.84"
   height="378.88358"
   viewBox="0 0 450.84 378.88358"
   sodipodi:docname="浦发.svg"
   xml:space="preserve"
   inkscape:version="1.2.2 (b0a84865, 2022-12-01)"
   xmlns:inkscape="http://www.inkscape.org/namespaces/inkscape"
   xmlns:sodipodi="http://sodipodi.sourceforge.net/DTD/sodipodi-0.dtd"
   xmlns="http://www.w3.org/2000/svg"
   xmlns:svg="http://www.w3.org/2000/svg"><defs
     id="defs1479" /><sodipodi:namedview
     id="namedview1477"
     pagecolor="#ffffff"
     bordercolor="#000000"
     borderopacity="0.25"
     inkscape:showpageshadow="2"
     inkscape:pageopacity="0.0"
     inkscape:pagecheckerboard="0"
     inkscape:deskcolor="#d1d1d1"
     showgrid="false"
     inkscape:zoom="0.4609375"
     inkscape:cx="196.33898"
     inkscape:cy="173.55932"
     inkscape:window-width="1313"
     inkscape:window-height="458"
     inkscape:window-x="0"
     inkscape:window-y="25"
     inkscape:window-maximized="0"
     inkscape:current-layer="g1481" /><g
     inkscape:groupmode="layer"
     inkscape:label="Image"
     id="g1481"
     transform="translate(-28.524532,-81.536188)"><path
       style="fill:#00006e;fill-opacity:1;stroke-width:1.23912"
       d="M 60.354579,439.90503 C 38.098137,422.88321 33.088422,418.47587 30.931131,414.0195 c -2.580127,-5.32984 -2.597277,-6.08359 -2.245467,-98.75034 l 0.354524,-93.37951 3.404079,-9.91294 c 10.647277,-31.00573 31.727542,-52.47214 61.030022,-62.14796 13.414531,-4.42954 36.812731,-4.70984 52.042931,-0.62345 26.26954,7.04835 47.85872,23.75321 61.10732,47.28244 l 3.83739,6.81514 -13.46957,-0.41659 c -10.73925,-0.33214 -15.68887,0.13446 -24.41809,2.30189 -33.95029,8.42974 -61.57482,30.84698 -72.41538,58.76494 -6.930611,17.8485 -7.295871,23.44211 -7.300201,111.79552 -0.002,44.41309 -0.34241,81.63308 -0.75609,82.71108 -0.41366,1.07802 -1.69092,1.96003 -2.83833,1.96003 -1.14741,0 -14.15677,-9.23163 -28.90969,-20.51472 z M 170.29957,390.49682 c -21.68192,-4.87016 -38.29145,-15.30208 -50.74836,-31.87344 -4.67161,-6.21461 -13.0669,-20.60073 -13.06601,-22.38981 10e-5,-0.18982 6.27313,-0.41423 13.94007,-0.4987 36.03443,-0.397 64.4073,-17.46975 81.39975,-48.98049 9.57863,-17.7626 14.7119,-35.67949 16.80893,-58.66915 1.15758,-12.69044 3.91681,-22.33919 9.4167,-32.92925 12.79483,-24.63651 34.89922,-41.73249 62.49342,-48.33369 9.24172,-2.21083 13.48963,-2.54619 25.3518,-2.00139 16.9983,0.7807 25.62629,2.89489 39.46626,9.67077 16.56586,8.11043 33.36766,25.84002 40.37017,42.59941 1.06993,2.56067 1.9426,4.72708 1.9393,4.81423 -0.004,0.0871 -5.16645,0.22267 -11.47365,0.30114 -25.52213,0.31757 -54.76391,11.74878 -68.68353,26.84979 -16.63385,18.04559 -27.83756,42.66566 -32.64693,71.74139 -6.23592,37.70011 -14.58678,54.9717 -33.58223,69.4561 -10.4758,7.98801 -22.68723,14.35982 -35.13834,18.33486 -10.86496,3.46865 -34.5176,4.45311 -45.84735,1.90823 z m 195.78055,-0.28045 c -27.55686,-5.87709 -49.34547,-22.39413 -66.00445,-50.03526 l -2.64048,-4.38117 15.11615,-0.11475 c 17.38099,-0.13192 29.36189,-2.76849 43.91836,-9.66485 28.03247,-13.28084 44.71705,-32.70699 53.7828,-62.62026 2.78179,-9.17875 2.82477,-10.35559 3.48486,-95.41204 0.65911,-84.92974 0.70256,-86.123184 3.14658,-86.446705 1.59607,-0.211269 10.85884,6.088292 26.02146,17.697049 28.70247,21.975106 32.16654,25.242966 33.88501,31.965866 0.8377,3.27721 1.61929,36.8867 2.12329,91.30495 0.78487,84.74406 0.75586,86.294 -1.81723,97.1035 -3.18442,13.37775 -10.72848,28.98359 -18.88271,39.06127 -12.57506,15.54131 -32.16205,27.85818 -50.39444,31.6895 -11.25533,2.36518 -30.27377,2.29815 -41.7392,-0.1471 z"
       id="path1487" /></g></svg>
