<?xml version="1.0" encoding="UTF-8" standalone="no"?>
<!-- Created with Inkscape (http://www.inkscape.org/) -->

<svg
   version="1.1"
   id="svg10780"
   width="420.99301"
   height="399.73499"
   viewBox="0 0 420.99301 399.73499"
   sodipodi:docname="邮储.svg"
   inkscape:version="1.2.2 (b0a84865, 2022-12-01)"
   xmlns:inkscape="http://www.inkscape.org/namespaces/inkscape"
   xmlns:sodipodi="http://sodipodi.sourceforge.net/DTD/sodipodi-0.dtd"
   xmlns="http://www.w3.org/2000/svg"
   xmlns:svg="http://www.w3.org/2000/svg">
  <defs
     id="defs10784" />
  <sodipodi:namedview
     id="namedview10782"
     pagecolor="#ffffff"
     bordercolor="#000000"
     borderopacity="0.25"
     inkscape:showpageshadow="2"
     inkscape:pageopacity="0.0"
     inkscape:pagecheckerboard="0"
     inkscape:deskcolor="#d1d1d1"
     showgrid="false"
     inkscape:zoom="0.4609375"
     inkscape:cx="210.44068"
     inkscape:cy="203.9322"
     inkscape:window-width="1440"
     inkscape:window-height="876"
     inkscape:window-x="0"
     inkscape:window-y="24"
     inkscape:window-maximized="0"
     inkscape:current-layer="g10786" />
  <g
     inkscape:groupmode="layer"
     inkscape:label="Image"
     id="g10786"
     transform="translate(-45.634527,-52.93378)">
    <g
       id="g10825"
       transform="matrix(1.159784,0,0,1.159784,-45.033792,-43.683953)"
       style="fill:#108c3e;fill-opacity:1">
      <path
         style="fill:#108c3e;fill-opacity:1"
         d="m 216.41949,240.42074 c 10.8625,-0.16144 28.6375,-0.16144 39.5,0 10.8625,0.16144 1.975,0.29353 -19.75,0.29353 -21.725,0 -30.6125,-0.13209 -19.75,-0.29353 z m 110.5,-6.1e-4 c 15.5375,-0.15498 40.9625,-0.15498 56.5,0 15.5375,0.15498 2.825,0.28178 -28.25,0.28178 -31.075,0 -43.7875,-0.1268 -28.25,-0.28178 z m 30.56828,-71.99986 c 12.55005,-0.15877 32.80005,-0.15859 45,4e-4 12.19995,0.159 1.93172,0.2889 -22.81828,0.28869 -24.75,-2.2e-4 -34.73177,-0.13031 -22.18172,-0.28909 z"
         id="path10835" />
      <path
         style="fill:#108c3e;fill-opacity:1"
         d="m 169.16949,427.43546 c 82.41719,-0.6885 144.7659,-0.6954 144.34575,-0.016 -0.25508,0.4125 -39.92473,0.64405 -88.15477,0.51456 -48.23004,-0.12947 -73.51598,-0.35383 -56.19098,-0.49856 z m 31.81965,-85.01533 c 13.92581,-0.1569 36.42581,-0.15675 50,3.3e-4 13.57419,0.15708 2.18035,0.28546 -25.31965,0.28528 -27.5,-1.8e-4 -38.60616,-0.12871 -24.68035,-0.28561 z m 1.03802,-119.50865 c 0.41709,-0.4169 27.50724,-0.64178 60.20034,-0.49973 l 59.44199,0.25828 -60.20034,0.49973 c -33.11019,0.27485 -59.85909,0.15863 -59.44199,-0.25828 z m 28.82293,-36.49098 c 13.29933,-0.15744 35.34933,-0.15759 49,-3.4e-4 13.65067,0.15725 2.7694,0.28606 -24.1806,0.28625 -26.95,1.8e-4 -38.11873,-0.12847 -24.8194,-0.28591 z"
         id="path10833" />
      <path
         style="fill:#108c3e;fill-opacity:1"
         d="m 97.486459,325.42043 c 11.449331,-0.16056 29.899331,-0.16035 41.000001,4.7e-4 11.10066,0.16081 1.73303,0.29218 -20.81697,0.29192 -22.549998,-2.6e-4 -31.632363,-0.13184 -20.183031,-0.29239 z M 122.9813,276.42117 c 8.42149,-0.16744 21.92149,-0.16707 30,8.2e-4 8.0785,0.16789 1.18819,0.30489 -15.31181,0.30444 -16.5,-4.5e-4 -23.10969,-0.13781 -14.68819,-0.30526 z m 81.93819,3.4e-4 c 8.3875,-0.16726 22.1125,-0.16726 30.5,0 8.3875,0.16726 1.525,0.3041 -15.25,0.3041 -16.775,0 -23.6375,-0.13684 -15.25,-0.3041 z m -89.43303,-37.00108 c 11.44933,-0.16056 29.89933,-0.16035 41,4.7e-4 11.10066,0.16081 1.73303,0.29218 -20.81697,0.29192 -22.55,-2.6e-4 -31.63237,-0.13184 -20.18303,-0.29239 z m 115.93303,-73.99969 c 10.8625,-0.16144 28.6375,-0.16144 39.5,0 10.8625,0.16144 1.975,0.29353 -19.75,0.29353 -21.725,0 -30.6125,-0.13209 -19.75,-0.29353 z m 106.5,-49.00076 c 17.7375,-0.15301 46.7625,-0.15301 64.5,0 17.7375,0.15301 3.225,0.27821 -32.25,0.27821 -35.475,0 -49.9875,-0.1252 -32.25,-0.27821 z m -9.5,-33.000123 c 20.7625,-0.150928 54.7375,-0.150928 75.5,0 20.7625,0.150929 3.775,0.274416 -37.75,0.274416 -41.525,0 -58.5125,-0.123487 -37.75,-0.274416 z"
         id="path10831" />
      <path
         style="fill:#108c3e;fill-opacity:1"
         d="m 325.03151,292.90666 c 0.42001,-0.41956 16.93537,-0.64425 36.70081,-0.49932 l 35.93717,0.26352 -36.70081,0.49932 c -20.18545,0.27462 -36.35717,0.15603 -35.93717,-0.26352 z"
         id="path10829" />
      <path
         style="fill:#108c3e;fill-opacity:1"
         d="m 138.65875,424.91949 c 2.03968,-8.70234 19.51074,-96.30935 19.51074,-97.83481 0,-1.855 -1.25708,-1.91519 -40,-1.91519 -31.337285,0 -39.998393,-0.27071 -39.992586,-1.25 0.0041,-0.6875 3.828459,-19.475 8.498626,-41.75 4.670168,-22.275 8.491832,-40.8375 8.492588,-41.25 7.56e-4,-0.4125 18.338872,-0.75014 40.751372,-0.75032 l 40.75,-3.2e-4 10.92266,-49.24968 c 6.00746,-27.08732 11.31611,-50.71218 11.797,-52.49968 l 0.87435,-3.25 h 39.31511 39.31511 l 6.25631,-25.5 6.25631,-25.499998 h 74.88158 c 41.18486,0 74.88157,0.129553 74.88157,0.287896 0,0.158344 -1.57329,7.020844 -3.49619,15.25 -1.92291,8.229152 -3.49791,15.299602 -3.5,15.712102 -0.002,0.4125 -28.78449,0.75 -63.96087,0.75 h -63.95706 l -5.11396,16.25 c -2.81267,8.9375 -6.29975,19.9625 -7.74905,24.5 l -2.63511,8.25 h -39.22292 -39.22292 l -1.51785,5.25 c -1.84446,6.37967 -3.56642,13.79902 -3.59962,15.50951 -0.0194,0.99926 10.03517,1.20589 48.65875,1 l 48.68319,-0.25951 7.63364,-25.5 7.63365,-25.5 55.70432,-0.25841 55.70432,-0.2584 -0.70534,2.7584 c -0.38794,1.51713 -2.105,8.83341 -3.81569,16.25841 l -3.11034,13.5 -44.52099,0.26017 -44.52099,0.26016 -5.1827,21.73984 c -2.85049,11.9569 -5.71079,24.10233 -6.35623,26.98983 l -1.17354,5.25 h -60.16711 -60.16712 l -2.08504,7.75 c -1.14678,4.2625 -2.39244,8.5375 -2.76813,9.5 -0.64352,1.64867 1.60496,1.75 38.83029,1.75 37.12066,0 39.48865,0.10597 39.10506,1.75 -0.87473,3.74901 -17.40445,83.27882 -17.40445,83.7384 0,0.26831 -17.17091,0.60568 -38.15758,0.74972 l -38.15758,0.26188 -2.34242,6.94479 c -1.28833,3.81963 -2.34242,7.30713 -2.34242,7.75 0,0.44286 22.45122,0.80521 49.89159,0.80521 h 49.89159 l 0.58832,-2.34404 c 0.32357,-1.28922 5.12014,-22.32672 10.65904,-46.75 5.53889,-24.42328 10.55135,-46.31846 11.1388,-48.65596 l 1.06809,-4.25 h 55.49792 c 52.36229,0 55.47214,0.0989 55.04168,1.75 -0.25092,0.9625 -1.95642,8.3875 -3.79,16.5 l -3.33378,14.75 H 357.0635 c -42.71699,0 -45.79354,0.11635 -46.27522,1.75 -0.28379,0.9625 -5.29284,22.9 -11.13122,48.75 -5.83837,25.85 -10.85941,48.00901 -11.15786,49.24224 l -0.54263,2.24223 -60.03524,0.25777 -60.03525,0.25776 -2.3345,8 c -1.28398,4.4 -2.34522,8.3375 -2.3583,8.75 -0.0131,0.4125 31.20722,0.75 69.37845,0.75 h 69.40223 l 2.59041,-11.25 c 1.42472,-6.1875 6.5607,-28.8 11.41328,-50.25 l 8.82287,-39 36.18449,-0.26247 c 20.30631,-0.1473 36.18448,0.12284 36.18448,0.61561 0,0.48294 -1.08763,5.77606 -2.41695,11.76247 -1.32933,5.98641 -2.93623,13.47189 -3.5709,16.63439 l -1.15395,5.75 -27.1791,0.009 -27.1791,0.009 -8.34831,36.74141 c -4.59157,20.20778 -9.69522,42.47891 -11.34144,49.49141 l -2.99314,12.75 h -87.42761 -87.4276 l 0.52736,-2.25 z M 165.0547,286.92873 c 1.29929,-4.53242 2.57978,-8.80742 2.84555,-9.5 0.38195,-0.99533 -5.8985,-1.25924 -29.96689,-1.25924 h -30.4501 l -2.20283,8.03795 c -1.21156,4.42087 -2.4553,8.69587 -2.76387,9.5 -0.48465,1.26296 3.57437,1.46205 29.80738,1.46205 h 30.36842 z m 83.51028,2.49076 c 0.36896,-3.1625 0.9395,-7.44419 1.26786,-9.51486 l 0.59702,-3.76485 -30.24216,0.26485 -30.24216,0.26486 -2.34917,8 c -1.29204,4.4 -2.36665,8.5625 -2.38802,9.25 -0.0303,0.97425 6.87955,1.25 31.32346,1.25 h 31.36232 z"
         id="path10827" />
    </g>
  </g>
</svg>
