<?xml version="1.0" encoding="UTF-8" standalone="no"?>
<!-- Created with Inkscape (http://www.inkscape.org/) -->

<svg
   version="1.1"
   id="svg1723"
   width="450.561"
   height="290.24945"
   viewBox="0 0 450.561 290.24945"
   sodipodi:docname="兴业.svg"
   xml:space="preserve"
   inkscape:version="1.2.2 (b0a84865, 2022-12-01)"
   xmlns:inkscape="http://www.inkscape.org/namespaces/inkscape"
   xmlns:sodipodi="http://sodipodi.sourceforge.net/DTD/sodipodi-0.dtd"
   xmlns="http://www.w3.org/2000/svg"
   xmlns:svg="http://www.w3.org/2000/svg"><defs
     id="defs1727" /><sodipodi:namedview
     id="namedview1725"
     pagecolor="#ffffff"
     bordercolor="#000000"
     borderopacity="0.25"
     inkscape:showpageshadow="2"
     inkscape:pageopacity="0.0"
     inkscape:pagecheckerboard="0"
     inkscape:deskcolor="#d1d1d1"
     showgrid="false"
     inkscape:zoom="0.4609375"
     inkscape:cx="-120.40678"
     inkscape:cy="47.728814"
     inkscape:window-width="1313"
     inkscape:window-height="458"
     inkscape:window-x="0"
     inkscape:window-y="25"
     inkscape:window-maximized="0"
     inkscape:current-layer="g1729" /><g
     inkscape:groupmode="layer"
     inkscape:label="Image"
     id="g1729"
     transform="translate(-36.404004,-90.574898)"><path
       style="fill:#1f4c9b;fill-opacity:1;stroke-width:1.24272"
       d="M 239.02336,380.4061 C 197.23479,377.02134 160.3237,367.54618 127.79998,351.85479 103.87774,340.31329 88.738446,329.84666 72.388216,313.54556 53.843316,295.05639 43.56135,278.02451 38.211543,256.9325 35.400276,245.84882 35.950403,222.23074 39.290832,210.59713 51.661569,167.51398 92.611766,129.73756 153.89709,104.87327 181.12657,93.82589 208.786,89.64445 247.35178,90.74518 c 25.28063,0.72155 38.1298,2.4913 58.77843,8.09577 l 12.42719,3.37299 -30.44662,0.7915 c -33.12488,0.86113 -48.0373,2.83853 -74.56317,9.88716 -58.8781,15.64548 -102.5427,48.13637 -117.044524,87.09301 -3.20734,8.61594 -3.95165,12.68422 -4.45346,24.34161 -0.39718,9.22682 -0.0647,16.00286 0.97563,19.88351 9.120114,34.02021 51.003604,64.50218 106.231084,77.31286 24.35049,5.6484 36.04116,6.76704 70.835,6.77801 35.84664,0.0112 43.57648,-0.82446 68.97093,-7.4571 51.1908,-13.37025 86.6147,-42.28656 91.85265,-74.97876 2.3518,-14.67856 -1.81552,-24.65352 -15.56216,-37.24982 -14.17924,-12.99271 -37.91119,-22.94211 -67.59146,-28.33709 -14.62106,-2.65768 -54.11504,-2.96144 -68.97092,-0.53049 -17.68801,2.89439 -33.27761,7.55295 -45.98062,13.74013 -11.36602,5.53598 -23.2622,13.90651 -21.74758,15.30231 1.85841,1.71263 50.82606,29.50093 51.98558,29.50093 0.75864,0 16.6344,-9.03223 35.27945,-20.07161 18.64506,-11.03939 34.45933,-20.07494 35.14282,-20.07903 2.55666,-0.0153 30.78846,18.46426 34.27491,22.4351 4.91697,5.60012 5.14193,14.48296 0.5063,19.9921 -4.33169,5.1479 -87.42666,53.64341 -95.50724,55.73948 -8.3466,2.16508 -13.78077,2.00734 -21.29345,-0.61812 -5.18164,-1.81083 -82.80761,-45.96383 -97.79545,-55.62523 -2.52533,-1.62787 -6.13262,-5.58946 -8.01618,-8.80354 -7.13851,-12.18094 -3.49904,-25.09147 11.71252,-41.54858 31.44473,-34.01949 88.91321,-54.56628 152.61955,-54.56628 22.43253,0 37.56282,1.4566 58.36909,5.61923 38.05824,7.61416 72.48339,24.2759 92.7945,44.91245 10.13256,10.29491 13.70806,15.006 18.46809,24.33359 12.70632,24.89888 8.77842,58.22416 -10.33335,87.67052 -8.25514,12.71905 -28.52593,32.62345 -43.1371,42.35741 -27.85544,18.55726 -65.52997,32.321 -104.46802,38.16559 -12.63848,1.89704 -68.14377,3.37554 -82.64084,2.20131 z"
       id="path1733" /></g></svg>
