<?xml version="1.0" encoding="UTF-8" standalone="no"?>
<!-- Created with Inkscape (http://www.inkscape.org/) -->

<svg
   version="1.1"
   id="svg6539"
   width="450.729"
   height="451.53644"
   viewBox="0 0 450.729 451.53644"
   sodipodi:docname="中信银行.svg"
   inkscape:version="1.2.2 (b0a84865, 2022-12-01)"
   xmlns:inkscape="http://www.inkscape.org/namespaces/inkscape"
   xmlns:sodipodi="http://sodipodi.sourceforge.net/DTD/sodipodi-0.dtd"
   xmlns="http://www.w3.org/2000/svg"
   xmlns:svg="http://www.w3.org/2000/svg">
  <defs
     id="defs6543" />
  <sodipodi:namedview
     id="namedview6541"
     pagecolor="#ffffff"
     bordercolor="#000000"
     borderopacity="0.25"
     inkscape:showpageshadow="2"
     inkscape:pageopacity="0.0"
     inkscape:pagecheckerboard="0"
     inkscape:deskcolor="#d1d1d1"
     showgrid="false"
     inkscape:zoom="0.4609375"
     inkscape:cx="192"
     inkscape:cy="216.94915"
     inkscape:window-width="1313"
     inkscape:window-height="458"
     inkscape:window-x="0"
     inkscape:window-y="25"
     inkscape:window-maximized="0"
     inkscape:current-layer="g6545" />
  <g
     inkscape:groupmode="layer"
     inkscape:label="Image"
     id="g6545"
     transform="translate(-32.876928,-39.710466)">
    <path
       style="fill:#d7000f;fill-opacity:1;stroke-width:1.24261"
       d="m 239.96065,490.58098 -5.90238,-0.4654 V 325.1158 c 0,-158.93288 -0.0882,-165.34453 -2.39803,-174.376 -4.52454,-17.69075 -17.29421,-37.6778 -32.10363,-50.2485 -8.84617,-7.508886 -22.9741,-16.371196 -31.77873,-19.934476 -10.09621,-4.086 -10.74622,-4.69273 -9.42805,-8.80038 0.59472,-1.85323 1.36678,-4.82485 1.7157,-6.60358 0.51525,-2.626612 2.47371,-4.074828 10.4269,-7.710326 12.72648,-5.817429 34.7266,-12.408249 51.13978,-15.32051 17.99927,-3.193689 59.03564,-3.220527 75.17768,-0.04917 24.91165,4.894289 53.99039,14.518411 59.89129,19.822075 3.36653,3.025811 4.72179,8.605511 2.91171,11.987691 -0.74616,1.39421 -5.46472,4.43297 -10.48568,6.75281 -27.61739,12.76003 -49.85115,36.595636 -59.63436,63.930826 l -3.86642,10.8031 -0.33246,167.30197 -0.33246,167.30197 -2.77405,0.74355 c -2.87988,0.77193 -31.8982,0.67856 -42.22681,-0.13587 z m -54.36402,-11.01584 c -5.12575,-1.74208 -13.93272,-5.32614 -19.57105,-7.96457 l -10.2515,-4.79713 V 294.00057 c 0,-95.04159 0.47248,-172.80288 1.04995,-172.80288 0.57748,0 4.35189,2.13845 8.38759,4.75211 14.76541,9.56262 26.88319,26.80036 30.94218,44.01575 1.56177,6.62391 1.83487,30.28118 1.85053,160.30064 0.0147,121.22207 -0.30045,152.52339 -1.5349,152.49814 -0.85429,-0.0175 -5.74705,-1.45712 -10.8728,-3.19919 z M 317.63372,329.64489 c 0.37775,-143.05723 0.55148,-153.64261 2.63576,-160.60686 5.29731,-17.69995 17.05855,-33.99637 31.09708,-43.08823 4.0357,-2.61366 7.81012,-4.75211 8.38759,-4.75211 0.57748,0 1.04996,77.70401 1.04996,172.67557 v 172.67557 l -9.0089,4.29022 c -9.69364,4.61632 -29.80534,11.95706 -32.75921,11.95706 -1.57293,0 -1.75436,-19.81556 -1.40228,-153.15122 z m 80.44857,-61.24207 c 0,-168.30396 0.10823,-177.056176 2.17456,-175.930436 4.02063,2.19038 21.80563,19.314136 31.12514,29.967916 27.55684,31.50215 46.31831,73.66987 51.83419,116.50107 0.80848,6.27788 0.67308,6.69833 -3.50139,10.8728 -3.75127,3.75127 -5.15167,4.34239 -10.28737,4.34239 -11.39848,0 -20.3262,-6.62095 -26.22319,-19.44758 -5.05186,-10.98842 -8.36661,-11.73268 -14.78367,-3.31935 -8.63317,11.31884 -12.51949,33.15283 -8.74797,49.14743 3.05285,12.94682 8.63594,24.30845 12.4107,25.25585 4.20058,1.05429 5.54766,0.0175 8.29015,-6.38046 3.05484,-7.12663 11.75797,-16.48157 17.97526,-19.32144 11.01262,-5.03026 18.96699,-1.1568 22.48655,10.95008 2.29206,7.88441 1.88109,12.46656 -2.76578,30.83751 -11.08368,43.81818 -36.3594,86.01799 -69.03042,115.25173 -5.15559,4.61317 -9.72997,8.38759 -10.16528,8.38759 -0.43531,0 -0.79148,-79.7018 -0.79148,-177.1151 z M 109.06775,435.70396 C 73.152792,404.39482 47.193704,359.40187 36.992603,310.7815 32.694738,290.297 31.58944,257.3701 34.502382,236.59718 c 6.038197,-43.05992 22.626145,-80.10611 51.02076,-113.94567 8.8211,-10.51264 30.367808,-30.932296 35.768618,-33.897656 2.06095,-1.13159 2.17456,3.02632 2.17456,79.587246 v 80.78121 l -3.66611,1.89582 c -7.8508,4.05981 -19.43917,1.07068 -26.988108,-6.96134 -2.16601,-2.30461 -5.53197,-7.54524 -7.47993,-11.64584 -2.35577,-4.95909 -4.36579,-7.57206 -6.00267,-7.80332 -4.02412,-0.56853 -11.404131,6.65129 -15.344237,15.01119 -8.640735,18.33338 -8.423863,39.2603 0.59122,57.05072 3.914881,7.72565 7.151037,10.91909 11.065157,10.91909 2.57569,0 3.63234,-1.15354 6.03673,-6.5903 7.09328,-16.03915 21.304268,-24.69635 32.914158,-20.05099 l 5.14597,2.05901 v 80.63448 c 0,44.34896 -0.18865,80.63448 -0.41924,80.63448 -0.23058,0 -4.84376,-3.85711 -10.25151,-8.57135 z"
       id="path6549" />
  </g>
</svg>
